<?xml version="1.0" encoding="UTF-8"?>
<svg id="Layer_1" data-name="Layer 1" xmlns="http://www.w3.org/2000/svg" viewBox="0 0 32 32">
  <circle cx="16" cy="16" r="16" fill="#52b3d8" stroke-width="0"/>
  <path d="M20.9234,9.4359c-2.1508,0-4.066,1.0025-5.3096,2.5649l1.0897,2.0527c.7873-1.5297,2.3796-2.5772,4.2185-2.5772,2.6194,0,4.7416,2.1222,4.7416,4.7416s-2.1222,4.7416-4.7416,4.7416v.0082c-1.6754-.0027-3.2419-.9045-4.0932-2.3565l-1.2763-2.4028.0014-.0027-.4904-.9181-3.3372-6.2876-7.4332,14h2.2966l1.5583-2.9327h1.5201l1.072-2.0309h-1.5147l2.5009-4.7062,1.5297,2.8809-3.6056,6.7889h2.3034l2.4532-4.6231.4086.7696c.0763.1594.489.8541.489.8541,1.2532,1.8566,3.3767,2.9981,5.6202,2.9994h0c3.7459,0,6.7821-3.0362,6.7821-6.7821s-3.0376-6.7821-6.7834-6.7821h0Z" fill="#fff" stroke="#fff" stroke-miterlimit="10"/>
</svg>