<?xml version="1.0" encoding="UTF-8" standalone="no"?>
<!DOCTYPE svg PUBLIC "-//W3C//DTD SVG 1.1//EN" "http://www.w3.org/Graphics/SVG/1.1/DTD/svg11.dtd">
<svg width="100%" height="100%" viewBox="0 0 200 200" version="1.1" xmlns="http://www.w3.org/2000/svg" xmlns:xlink="http://www.w3.org/1999/xlink" xml:space="preserve" xmlns:serif="http://www.serif.com/" style="fill-rule:evenodd;clip-rule:evenodd;stroke-linejoin:round;stroke-miterlimit:2;">
    <g id="alphagrowth" transform="matrix(0.564972,0,0,0.564972,0,0)">
        <rect x="0" y="0" width="354" height="354" style="fill:rgb(10,10,10);"/>
        <path d="M264.827,235.803C241.785,231.957 236.876,198.861 231.795,180.402C247.132,156.379 262.712,132.235 277.975,107.825C274.403,106.664 245.504,106.373 238.601,107.317L218.914,138.186C216.482,133.348 214.611,128.509 211.962,124.348C208.652,118.624 204.159,113.665 198.778,109.798C193.398,105.932 187.255,103.248 180.754,101.922C171.951,100.43 162.934,100.751 154.261,102.865C138.436,106.224 123.706,113.467 111.411,123.937C96.823,135.643 85.028,150.425 76.873,167.217C70.7,179.444 68.074,193.142 69.29,206.772C72.766,240.327 105.966,255.859 136.98,252.568C157.475,250.099 176.758,241.581 192.348,228.11C195.702,225.231 198.521,222.957 201.778,220.005L190.112,182.217C182.158,194.087 172.95,205.077 162.646,214.998C156.229,221.163 148.942,226.363 141.015,230.432C134.826,233.598 127.793,234.74 120.914,233.698C117.544,233.197 114.376,231.79 111.75,229.629C109.124,227.467 107.142,224.633 106.015,221.433C103.911,216.641 102.907,211.442 103.074,206.216C103.218,192.338 106.64,178.689 113.063,166.371C117.457,157.189 122.801,148.489 129.008,140.412C133.071,135.007 137.799,130.131 143.081,125.897C149.082,120.891 156.641,118.113 164.469,118.034C166.986,118.035 169.478,118.531 171.802,119.494C174.125,120.457 176.235,121.869 178.008,123.647C182.042,127.767 185.113,132.724 187,138.162C191.327,148.976 193.83,160.879 197.184,172.032C200.733,183.967 204.29,195.893 207.854,207.812C209.924,215.725 212.833,223.397 216.531,230.698C219.12,235.595 222.67,239.926 226.97,243.433C231.27,246.94 236.233,249.553 241.566,251.117C248.584,252.922 255.951,252.886 262.949,251.012C269.949,249.138 276.34,245.489 281.5,240.423C282.504,239.209 283.684,238.149 285,237.279L285,235.561C278.31,236.529 271.515,236.529 264.827,235.561" style="fill:url(#_Radial1);fill-rule:nonzero;"/>
    </g>
    <defs>
        <radialGradient id="_Radial1" cx="0" cy="0" r="1" gradientUnits="userSpaceOnUse" gradientTransform="matrix(-216,1.65394e-13,-2.03909e-13,-266.299,285,177)"><stop offset="0" style="stop-color:rgb(191,255,54);stop-opacity:1"/><stop offset="0.25" style="stop-color:rgb(191,255,54);stop-opacity:1"/><stop offset="1" style="stop-color:white;stop-opacity:1"/></radialGradient>
    </defs>
</svg>
