<svg height="150" viewBox="0 0 150 150" width="150" xmlns="http://www.w3.org/2000/svg"><path d="m73.5 147.1c-40.6 0-73.5-32.9-73.5-73.6 0-40.6 32.9-73.5 73.5-73.5 40.7 0 73.6 32.9 73.6 73.5 0 40.7-32.9 73.6-73.6 73.6z" fill="#101010" fill-rule="evenodd"/><g stroke="#fff"><path d="m71.5 23.3-33.4 65.7 35.1 32.3 35.1-30.1-34.5-67.9c-.3-.6-1.1-.9-1.8-.6q-.3.2-.5.6z" fill="none" stroke-width="3.9"/><path d="m53.2 59.2 19.6 9.5 19.8-9.5" fill="none" stroke-width="3.9"/><path d="m39.1 89.8 13.3-6.9 13.6 9.2 29.4-7.2 12.4 6.8-34.6 29.6z" fill="#fff" fill-rule="evenodd" stroke-width="2.6"/><path d="m72 67.9-4.3 24.9 5.5 28.5" fill="none" stroke-width="3.9"/></g><path d="m67.7 92.8 5.5 28.5" fill="none" stroke="#101010" stroke-width="3.9"/><path d="m73.5 110.3c0 13.1 7 25.3 18.4 31.8 11.4 6.6 25.4 6.6 36.8 0 11.4-6.5 18.4-18.7 18.4-31.8 0-20.3-16.5-36.8-36.8-36.8s-36.8 16.5-36.8 36.8z" stroke="#fff" stroke-width="3.7"/></svg>