<svg width="1071" height="1071" viewBox="0 0 1071 1071" fill="none" xmlns="http://www.w3.org/2000/svg">
<path d="M595.147 126.62C588.295 128.71 584.461 130.884 577.528 136.568C570.921 141.919 566.597 146.6 565.782 149.192C565.211 151.115 561.458 152.62 557.053 152.62C555.259 152.62 552.322 152.954 550.446 153.456C548.57 153.874 543.186 154.793 538.455 155.546C533.724 156.214 524.425 158.137 517.655 159.809C510.966 161.398 503.951 163.07 502.156 163.488C487.555 166.999 481.192 168.838 458.924 176.446C445.056 181.211 429.803 186.812 425.072 188.986C420.34 191.076 415.038 193.416 413.244 194.252C407.289 196.76 379.147 211.641 370.419 216.741C351.087 228.11 334.528 239.229 323.108 248.509C320.661 250.599 318.05 252.689 317.398 253.19C314.788 255.28 307.202 261.718 306.794 262.135C306.549 262.386 304.591 264.142 302.307 265.898C282.893 281.698 259.319 304.939 243.25 324.167C232.319 337.292 207.685 372.989 202.056 383.857C199.691 388.455 198.386 390.796 194.144 397.986C191.126 403.085 182.724 419.22 178.646 427.664C177.422 430.172 174.893 436.943 173.017 442.712C171.06 448.48 168.612 455.251 167.552 457.76C163.147 468.042 155.153 496.55 151.89 513.772C151.482 515.862 150.259 521.881 149.117 527.231C143.815 551.559 142.591 560.086 141.205 582.323C140.715 589.931 139.981 601.133 139.41 607.153C138.676 615.847 138.757 620.111 139.573 626.966C140.144 631.731 140.389 636.58 140.144 637.667C139.818 639.004 137.208 641.512 132.884 644.605C106.537 663.917 80.271 689.415 63.1411 712.405C60.5308 715.916 55.3918 723.106 51.7211 728.373C48.0504 733.556 42.5036 741.163 39.3223 745.176C23.9054 764.488 21.0504 768.668 15.9115 779.034C6.2045 798.597 3.92051 807.793 4.00208 827.689C4.00208 853.271 12.4039 874.589 29.8601 893.232C40.3012 904.434 51.558 911.122 69.422 916.807C89.8964 923.328 117.304 924.582 136.229 919.984C172.12 911.206 198.467 894.904 223.754 865.895C228.078 860.962 235.174 852.435 239.498 846.917C243.821 841.4 247.736 836.3 248.307 835.631C248.878 834.963 251.733 831.451 254.751 827.857C257.769 824.262 261.114 819.497 262.174 817.407C263.887 813.979 264.54 813.477 267.069 813.227C268.863 813.059 273.105 814.063 277.591 815.651C285.83 818.493 310.628 830.866 323.597 838.557C328.002 841.233 332.815 844.075 334.12 844.827C335.507 845.58 341.624 849.593 347.742 853.689C353.942 857.785 364.138 864.306 370.501 868.235C380.534 874.422 394.238 883.283 413.896 896.409C420.177 900.505 421.482 901.341 434.86 909.032C439.999 912.042 445.138 915.051 446.28 915.887C451.501 919.649 481.437 932.775 495.223 937.373C512.597 943.141 525.649 945.147 546.041 945.147C560.643 945.147 564.721 944.813 577.609 942.556C589.192 940.466 611.869 932.189 626.96 924.415C637.238 919.148 668.316 897.746 676.718 890.139C679.573 887.547 691.319 876.679 696.377 871.997C708.286 860.879 720.195 848.924 725.171 843.072C728.597 839.143 736.51 829.947 742.791 822.757C758.534 804.699 761.47 801.021 771.748 787.143C783.331 771.343 794.344 754.957 807.966 733.138C819.549 714.495 820.12 713.575 826.89 701.035C829.256 696.688 832.437 691.672 833.905 689.917L836.597 686.656L846.549 688.077C854.788 689.248 861.232 689.415 884.072 689.081C909.685 688.663 918.25 688.245 941.824 685.987C946.8 685.569 956.833 684.566 964.256 683.897C971.679 683.229 983.751 682.309 991.174 681.807C1014.5 680.386 1031.31 678.547 1039.3 676.624C1045.5 675.119 1052.11 670.939 1056.92 665.756C1065.89 655.808 1066.46 652.631 1065.4 619.525C1064.59 594.445 1063.12 576.221 1060.92 563.43C1060.18 559.333 1059.29 553.9 1058.88 551.392C1056.84 538.601 1055.7 533.25 1049.58 509.173C1047.05 499.058 1043.87 487.772 1042.56 484.094C1038.16 471.303 1035.39 463.946 1031.8 455.669C1029.76 451.072 1027.47 445.638 1026.58 443.548C1024.46 438.281 1008.39 406.011 1006.59 403.252C1005.69 402.082 1005.04 400.828 1005.04 400.577C1005.04 399.658 988.319 370.983 983.996 364.546C978.776 356.854 960.993 333.279 951.286 321.492C941.09 309.035 922.899 289.306 915.069 282.45C903.649 272.335 892.31 262.554 886.029 257.538C883.174 255.197 879.667 252.354 878.28 251.184C874.038 247.506 858.54 236.554 839.86 224.098C830.561 217.828 810.413 206.709 786.431 194.42C776.724 189.404 749.561 177.867 741.567 175.275C726.803 170.594 714.078 166.748 709.347 165.578C700.374 163.488 697.274 162.735 695.072 162.401C682.51 160.06 663.667 155.796 662.851 155.128C662.28 154.626 661.383 152.452 660.812 150.279C658.854 141.919 644.09 131.218 628.591 126.704C620.924 124.446 602.407 124.446 595.147 126.62ZM609.585 215.152C611.053 216.406 613.582 218.413 615.132 219.667C621.658 224.599 635.525 237.557 640.745 243.576C648.821 252.856 661.546 269.242 665.706 275.512C667.582 278.521 670.356 282.283 671.824 283.872C678.757 291.479 694.909 315.974 707.144 337.543C717.341 355.433 717.504 355.768 722.643 367.89C724.437 371.986 727.945 380.095 730.555 385.864C736.999 400.41 739.365 406.596 745.238 424.32C754.618 452.66 761.226 474.479 763.591 485.348C765.467 493.707 768.649 510.678 769.22 515.444C769.628 518.453 770.688 525.977 771.585 532.164C773.135 542.948 773.951 549.72 775.827 568.948C776.235 573.796 776.643 582.574 776.643 588.594C776.643 594.529 777.214 604.477 777.785 610.664C778.437 616.767 778.763 622.368 778.519 623.037C778.193 623.873 777.458 624.04 776.316 623.706C775.419 623.455 773.298 623.037 771.748 622.786C768.404 622.284 764.244 621.532 750.866 618.689C734.552 615.345 716.199 612.252 697.927 609.911C680.307 607.571 661.383 604.477 643.682 601.05C640.337 600.381 635.198 599.461 632.262 599.043C623.289 597.789 617.579 596.703 607.383 594.445C598.247 592.439 590.253 590.851 579.241 589.012C576.794 588.594 572.715 587.841 570.268 587.423C567.821 586.922 556.972 585.249 546.205 583.577C535.437 581.989 523.12 580.066 518.878 579.314C492.939 574.967 458.271 572.375 418.301 571.706C379.718 571.121 330.531 573.462 301.492 577.224C295.7 577.976 292.682 578.645 280.691 581.487C279.141 581.822 273.594 582.992 268.455 583.995C244.147 588.594 242.597 588.928 234.195 591.269C229.954 592.523 220.736 595.532 213.803 598.04C206.869 600.548 200.262 602.638 199.12 602.722L197.081 602.805L197.325 594.445C197.407 589.848 197.896 583.661 198.304 580.651C202.383 552.478 203.769 544.871 208.99 523.803C209.806 520.376 211.111 514.858 211.845 511.681C216.495 491.617 231.014 457.007 246.268 429.336C269.76 387.034 302.96 345.485 335.425 317.813C360.794 296.244 363.404 294.154 380.615 281.698C388.936 275.762 405.087 266.399 422.869 257.37C444.893 246.084 451.827 243.075 469.12 236.888C498.975 226.355 526.464 219.667 550.283 217.075C572.389 214.651 583.482 213.648 589.845 213.397C608.28 212.728 606.73 212.644 609.585 215.152ZM706.655 227.274C709.51 228.361 714.567 230.117 717.911 231.204C726.558 233.962 749.316 243.075 755.271 246.168C758.044 247.589 763.102 249.93 766.609 251.351C775.419 254.946 792.467 263.891 799.89 268.824C803.235 271.164 806.253 273.004 806.416 273.004C806.987 273.004 835.455 292.733 838.066 294.907C839.289 295.994 842.715 298.669 845.652 301.01C856.745 309.704 861.395 313.633 873.712 325.17C888.64 339.048 891.821 342.392 905.035 357.858C922.818 378.758 927.549 385.111 942.64 408.854C955.528 429.001 968.09 452.576 974.615 468.628C976.002 472.055 978.694 478.158 980.489 482.171C982.365 486.184 983.833 489.695 983.833 490.029C983.833 490.363 985.301 494.711 987.096 499.727C990.603 509.508 991.338 512.016 995.742 529.655C999.087 542.948 1001.29 554.234 1002.51 563.513C1006.18 592.188 1008.06 615.011 1007.08 618.188C1006.59 619.693 1005.78 619.86 995.416 619.86C989.298 619.943 978.776 620.361 972.005 620.863C965.316 621.281 953.896 622.033 946.718 622.451C939.54 622.786 927.467 623.538 919.8 623.956C912.214 624.458 894.186 625.294 879.83 625.796C865.473 626.297 850.057 627.133 845.652 627.551C841.165 627.969 837.25 628.053 836.842 627.635C836.516 627.3 835.7 614.342 834.966 598.793C833.742 571.205 833.008 560.253 831.295 546.961C830.887 543.449 830.153 537.263 829.664 533.167C827.298 513.103 823.546 491.367 818.978 470.717C813.35 445.387 811.8 439.2 806.987 422.648C802.174 406.178 790.102 374.494 781.863 356.353C778.111 348.244 775.011 341.305 775.011 341.054C775.011 340.469 768.404 326.926 765.06 320.739C753.476 299.003 733.165 267.57 719.135 249.596C718.238 248.425 713.18 242.991 707.96 237.474C702.658 231.872 698.334 226.94 698.334 226.355C698.334 224.85 701.026 225.184 706.655 227.274ZM446.28 633.319C468.957 635.075 483.476 636.663 509.905 640.175C516.839 641.094 525.486 642.181 529.075 642.599C532.664 642.934 538.537 643.686 542.126 644.188C545.715 644.605 551.996 645.358 555.993 645.859C560.072 646.277 567.576 647.364 572.715 648.284C577.854 649.203 587.235 650.708 593.516 651.628C609.748 654.136 619.211 655.808 628.591 657.981C633.567 659.152 657.794 663.75 670.6 665.923C680.307 667.595 685.202 668.431 692.217 669.602C696.295 670.271 704.942 671.775 711.549 672.946C718.238 674.116 726.64 675.454 730.31 675.955C734.063 676.373 740.017 677.126 743.606 677.627C747.195 678.129 755.026 679.216 761.063 679.968C767.099 680.804 772.156 681.807 772.319 682.309C772.482 682.727 771.259 685.402 769.628 688.077C767.996 690.836 765.957 694.431 765.06 696.019C764.162 697.608 762.368 700.45 761.063 702.289C759.757 704.129 756.902 708.225 754.7 711.485C752.579 714.662 749.398 719.009 747.766 720.932C746.135 722.939 743.199 727.704 741.159 731.549C739.12 735.395 736.265 739.993 734.797 741.832C727.537 751.112 715.709 765.658 710.896 771.259C707.96 774.687 701.026 782.963 695.643 789.651C690.177 796.339 678.023 809.715 668.561 819.413C641.969 846.75 624.513 860.711 602.815 871.997C581.525 883.033 570.676 885.875 549.631 885.791C531.685 885.791 520.428 883.785 501.34 877.264C481.029 870.409 464.634 861.046 420.177 831.033C378.25 802.777 373.437 799.6 362.262 793.246C359.815 791.825 353.615 788.147 348.476 785.137C343.419 782.127 339.096 779.619 339.014 779.619C338.851 779.619 335.099 777.446 330.694 774.854C315.359 765.742 280.609 749.607 263.806 743.755C256.872 741.414 231.585 734.141 223.183 732.135C218.86 731.048 204.83 728.54 191.371 726.45C178.482 724.443 156.458 722.939 145.12 723.44C137.208 723.691 134.679 723.607 134.679 722.771C134.679 721.517 139.981 714.997 146.507 708.225C153.114 701.37 166.084 690.669 175.546 684.315C199.528 668.097 242.597 652.046 281.099 645.023C286.89 643.937 294.313 642.599 298.637 641.68C302.47 640.927 313.238 639.088 322.292 637.583C327.023 636.831 335.588 635.911 361.038 633.487C371.724 632.4 433.392 632.316 446.28 633.319ZM178.319 785.137C183.703 785.806 189.413 786.725 190.963 787.143C192.513 787.478 195.857 788.23 198.304 788.815C206.053 790.404 212.334 792.41 212.742 793.497C212.905 793.999 212.253 795.754 211.192 797.426C210.132 799.098 207.685 803.111 205.646 806.455C203.362 810.217 197.896 816.654 191.044 823.593C181.99 832.873 177.911 836.3 167.144 843.657C153.44 852.937 146.099 856.866 134.679 860.879C125.951 863.888 111.35 866.563 103.519 866.563C86.4704 866.48 69.0957 856.615 62.7332 843.323C60.2861 838.223 60.0414 837.136 60.0414 829.696C60.0414 821.921 60.1229 821.503 63.4674 814.648C67.3828 806.789 69.0957 804.532 74.7241 800.101C81.984 794.417 92.0988 790.237 103.682 787.979C105.721 787.561 110.697 786.558 114.694 785.639C124.564 783.465 163.392 783.131 178.319 785.137Z" fill="white"/>
<path d="M388.365 339.884C381.35 341.221 379.8 341.806 375.64 344.482C370.256 348.076 365.851 353.343 362.915 359.948C360.712 364.796 360.467 366.134 360.386 374.243C360.386 382.77 360.467 383.523 363.078 388.957C366.585 396.23 376.945 407.098 383.47 410.275C390.159 413.535 396.359 414.622 401.905 413.452C407.371 412.281 413.081 409.773 416.751 406.931C420.259 404.172 427.763 393.889 431.026 387.368C433.392 382.52 433.555 381.433 433.637 373.742C433.637 362.79 431.679 358.108 423.277 349.581C418.301 344.565 416.425 343.311 412.02 341.806C406.066 339.716 394.075 338.797 388.365 339.884Z" fill="white"/>
<path d="M534.377 340.636C533.724 340.97 530.951 342.391 528.34 343.729C521.325 347.24 514.392 354.681 510.966 362.288C508.6 367.639 508.274 369.227 508.274 375.33C508.274 386.532 511.7 394.809 520.265 403.921C526.138 410.191 530.869 413.368 536.742 414.789C545.633 416.963 552.567 415.959 562.029 411.027C569.452 407.098 574.999 401.162 579.322 392.133C582.748 385.027 582.911 384.442 582.911 377.169C582.911 369.896 582.748 369.227 579.73 363.459C574.183 352.758 567.331 346.237 557.217 342.057C552.812 340.218 550.854 339.883 543.839 339.967C539.271 339.967 535.029 340.301 534.377 340.636Z" fill="white"/>
<path d="M526.872 459.348C506.887 473.727 490.736 479.077 467.896 478.994C443.18 478.91 427.763 473.811 411.775 460.435C404.189 454.081 402.558 453.579 397.908 456.338C393.259 459.097 380.697 469.881 376.782 474.312C372.866 478.743 372.703 482.087 376.129 489.444C380.044 497.887 385.428 504.492 394.075 511.598C405.739 521.212 420.34 529.488 430.374 532.163C431.76 532.581 435.023 533.501 437.633 534.17C452.316 538.35 483.884 537.681 498.893 532.999C525.567 524.639 538.211 517.45 551.996 502.736C558.032 496.299 560.887 492.453 563.253 487.688C566.271 481.585 566.434 481 565.537 477.991C563.579 471.386 542.697 453.496 537.069 453.663C535.6 453.663 531.848 455.753 526.872 459.348Z" fill="white"/>
</svg>
