<?xml version="1.0" standalone="no"?>
<!DOCTYPE svg PUBLIC "-//W3C//DTD SVG 20010904//EN"
 "http://www.w3.org/TR/2001/REC-SVG-20010904/DTD/svg10.dtd">
<svg version="1.0" xmlns="http://www.w3.org/2000/svg"
 width="1324.000000pt" height="1000.000000pt" viewBox="0 0 1324.000000 1000.000000"
 preserveAspectRatio="xMidYMid meet">

<g transform="translate(0.000000,1000.000000) scale(0.100000,-0.100000)"
fill="#FFFFFF" stroke="none">
<path d="M7335 9891 c-84 -25 -131 -51 -216 -119 -81 -64 -134 -120 -144 -151
-7 -23 -53 -41 -107 -41 -22 0 -58 -4 -81 -10 -23 -5 -89 -16 -147 -25 -58 -8
-172 -31 -255 -51 -82 -19 -168 -39 -190 -44 -179 -42 -257 -64 -530 -155
-170 -57 -357 -124 -415 -150 -58 -25 -123 -53 -145 -63 -73 -30 -418 -208
-525 -269 -237 -136 -440 -269 -580 -380 -30 -25 -62 -50 -70 -56 -32 -25
-125 -102 -130 -107 -3 -3 -27 -24 -55 -45 -238 -189 -527 -467 -724 -697
-134 -157 -436 -584 -505 -714 -29 -55 -45 -83 -97 -169 -37 -61 -140 -254
-190 -355 -15 -30 -46 -111 -69 -180 -24 -69 -54 -150 -67 -180 -54 -123 -152
-464 -192 -670 -5 -25 -20 -97 -34 -161 -65 -291 -80 -393 -97 -659 -6 -91
-15 -225 -22 -297 -9 -104 -8 -155 2 -237 7 -57 10 -115 7 -128 -4 -16 -36
-46 -89 -83 -323 -231 -645 -536 -855 -811 -32 -42 -95 -128 -140 -191 -45
-62 -113 -153 -152 -201 -189 -231 -224 -281 -287 -405 -119 -234 -147 -344
-146 -582 0 -306 103 -561 317 -784 128 -134 266 -214 485 -282 251 -78 587
-93 819 -38 440 105 763 300 1073 647 53 59 140 161 193 227 53 66 101 127
108 135 7 8 42 50 79 93 37 43 78 100 91 125 21 41 29 47 60 50 22 2 74 -10
129 -29 101 -34 405 -182 564 -274 54 -32 113 -66 129 -75 17 -9 92 -57 167
-106 76 -49 201 -127 279 -174 123 -74 291 -180 532 -337 77 -49 93 -59 257
-151 63 -36 126 -72 140 -82 64 -45 431 -202 600 -257 213 -69 373 -93 623
-93 179 0 229 4 387 31 142 25 420 124 605 217 126 63 507 319 610 410 35 31
179 161 241 217 146 133 292 276 353 346 42 47 139 157 216 243 193 216 229
260 355 426 142 189 277 385 444 646 142 223 149 234 232 384 29 52 68 112 86
133 l33 39 122 -17 c101 -14 180 -16 460 -12 314 5 419 10 708 37 61 5 184 17
275 25 91 8 239 19 330 25 286 17 492 39 590 62 76 18 157 68 216 130 110 119
117 157 104 553 -10 300 -28 518 -55 671 -9 49 -20 114 -25 144 -25 153 -39
217 -114 505 -31 121 -70 256 -86 300 -54 153 -88 241 -132 340 -25 55 -53
120 -64 145 -26 63 -223 449 -245 482 -11 14 -19 29 -19 32 0 11 -205 354
-258 431 -64 92 -282 374 -401 515 -125 149 -348 385 -444 467 -140 121 -279
238 -356 298 -35 28 -78 62 -95 76 -52 44 -242 175 -471 324 -114 75 -361 208
-655 355 -119 60 -452 198 -550 229 -181 56 -337 102 -395 116 -110 25 -148
34 -175 38 -154 28 -385 79 -395 87 -7 6 -18 32 -25 58 -24 100 -205 228 -395
282 -94 27 -321 27 -410 1z m177 -1059 c18 -15 49 -39 68 -54 80 -59 250 -214
314 -286 99 -111 255 -307 306 -382 23 -36 57 -81 75 -100 85 -91 283 -384
433 -642 125 -214 127 -218 190 -363 22 -49 65 -146 97 -215 79 -174 108 -248
180 -460 115 -339 196 -600 225 -730 23 -100 62 -303 69 -360 5 -36 18 -126
29 -200 19 -129 29 -210 52 -440 5 -58 10 -163 10 -235 0 -71 7 -190 14 -264
8 -73 12 -140 9 -148 -4 -10 -13 -12 -27 -8 -11 3 -37 8 -56 11 -41 6 -92 15
-256 49 -200 40 -425 77 -649 105 -216 28 -448 65 -665 106 -41 8 -104 19
-140 24 -110 15 -180 28 -305 55 -112 24 -210 43 -345 65 -30 5 -80 14 -110
19 -30 6 -163 26 -295 46 -132 19 -283 42 -335 51 -318 52 -743 83 -1233 91
-473 7 -1076 -21 -1432 -66 -71 -9 -108 -17 -255 -51 -19 -4 -87 -18 -150 -30
-298 -55 -317 -59 -420 -87 -52 -15 -165 -51 -250 -81 -85 -30 -166 -55 -180
-56 l-25 -1 3 100 c1 55 7 129 12 165 50 337 67 428 131 680 10 41 26 107 35
145 57 240 235 654 422 985 288 506 695 1003 1093 1334 311 258 343 283 554
432 102 71 300 183 518 291 270 135 355 171 567 245 366 126 703 206 995 237
271 29 407 41 485 44 226 8 207 9 242 -21z m1190 -145 c35 -13 97 -34 138 -47
106 -33 385 -142 458 -179 34 -17 96 -45 139 -62 108 -43 317 -150 408 -209
41 -28 78 -50 80 -50 7 0 356 -236 388 -262 15 -13 57 -45 93 -73 136 -104
193 -151 344 -289 183 -166 222 -206 384 -391 218 -250 276 -326 461 -610 158
-241 312 -523 392 -715 17 -41 50 -114 72 -162 23 -48 41 -90 41 -94 0 -4 18
-56 40 -116 43 -117 52 -147 106 -358 41 -159 68 -294 83 -405 45 -343 68
-616 56 -654 -6 -18 -16 -20 -143 -20 -75 -1 -204 -6 -287 -12 -82 -5 -222
-14 -310 -19 -88 -4 -236 -13 -330 -18 -93 -6 -314 -16 -490 -22 -176 -6 -365
-16 -419 -21 -55 -5 -103 -6 -108 -1 -4 4 -14 159 -23 345 -15 330 -24 461
-45 620 -5 42 -14 116 -20 165 -29 240 -75 500 -131 747 -69 303 -88 377 -147
575 -59 197 -207 576 -308 793 -46 97 -84 180 -84 183 0 7 -81 169 -122 243
-142 260 -391 636 -563 851 -11 14 -73 79 -137 145 -65 67 -118 126 -118 133
0 18 33 14 102 -11z m-3192 -4857 c278 -21 456 -40 780 -82 85 -11 191 -24
235 -29 44 -4 116 -13 160 -19 44 -5 121 -14 170 -20 50 -5 142 -18 205 -29
63 -11 178 -29 255 -40 199 -30 315 -50 430 -76 61 -14 358 -69 515 -95 119
-20 179 -30 265 -44 50 -8 156 -26 237 -40 82 -14 185 -30 230 -36 46 -5 119
-14 163 -20 44 -6 140 -19 214 -28 74 -10 136 -22 138 -28 2 -5 -13 -37 -33
-69 -20 -33 -45 -76 -56 -95 -11 -19 -33 -53 -49 -75 -16 -22 -51 -71 -78
-110 -26 -38 -65 -90 -85 -113 -20 -24 -56 -81 -81 -127 -25 -46 -60 -101 -78
-123 -89 -111 -234 -285 -293 -352 -36 -41 -121 -140 -187 -220 -67 -80 -216
-240 -332 -356 -326 -327 -540 -494 -806 -629 -261 -132 -394 -166 -652 -165
-220 0 -358 24 -592 102 -249 82 -450 194 -995 553 -514 338 -573 376 -710
452 -30 17 -106 61 -169 97 -62 36 -115 66 -116 66 -2 0 -48 26 -102 57 -188
109 -614 302 -820 372 -85 28 -395 115 -498 139 -53 13 -225 43 -390 68 -158
24 -428 42 -567 36 -97 -3 -128 -2 -128 8 0 15 65 93 145 174 81 82 240 210
356 286 294 194 822 386 1294 470 71 13 162 29 215 40 47 9 179 31 290 49 58
9 163 20 475 49 131 13 887 14 1045 2z m-3285 -1816 c66 -8 136 -19 155 -24
19 -4 60 -13 90 -20 95 -19 172 -43 177 -56 2 -6 -6 -27 -19 -47 -13 -20 -43
-68 -68 -108 -28 -45 -95 -122 -179 -205 -111 -111 -161 -152 -293 -240 -168
-111 -258 -158 -398 -206 -107 -36 -286 -68 -382 -68 -209 1 -422 119 -500
278 -30 61 -33 74 -33 163 0 93 1 98 42 180 48 94 69 121 138 174 89 68 213
118 355 145 25 5 86 17 135 28 121 26 597 30 780 6z"/>
<path d="M4800 7340 c-86 -16 -105 -23 -156 -55 -66 -43 -120 -106 -156 -185
-27 -58 -30 -74 -31 -171 0 -102 1 -111 33 -176 43 -87 170 -217 250 -255 82
-39 158 -52 226 -38 67 14 137 44 182 78 43 33 135 156 175 234 29 58 31 71
32 163 0 131 -24 187 -127 289 -61 60 -84 75 -138 93 -73 25 -220 36 -290 23z"/>
<path d="M6590 7331 c-8 -4 -42 -21 -74 -37 -86 -42 -171 -131 -213 -222 -29
-64 -33 -83 -33 -156 0 -134 42 -233 147 -342 72 -75 130 -113 202 -130 109
-26 194 -14 310 45 91 47 159 118 212 226 42 85 44 92 44 179 0 87 -2 95 -39
164 -68 128 -152 206 -276 256 -54 22 -78 26 -164 25 -56 0 -108 -4 -116 -8z"/>
<path d="M6498 5911 c-245 -172 -443 -236 -723 -235 -303 1 -492 62 -688 222
-93 76 -113 82 -170 49 -57 -33 -211 -162 -259 -215 -48 -53 -50 -93 -8 -181
48 -101 114 -180 220 -265 143 -115 322 -214 445 -246 17 -5 57 -16 89 -24
180 -50 567 -42 751 14 327 100 482 186 651 362 74 77 109 123 138 180 37 73
39 80 28 116 -24 79 -280 293 -349 291 -18 0 -64 -25 -125 -68z"/>
</g>
</svg>
