<?xml version="1.0" encoding="UTF-8" standalone="no"?>
<!-- Created with Inkscape (http://www.inkscape.org/) -->

<svg
   width="207mm"
   height="207mm"
   viewBox="0 0 207 207"
   version="1.1"
   id="svg1"
   xml:space="preserve"
   inkscape:version="1.4.2 (f4327f4, 2025-05-13)"
   sodipodi:docname="Clearstar Labs Logo (Inkscape).svg"
   xmlns:inkscape="http://www.inkscape.org/namespaces/inkscape"
   xmlns:sodipodi="http://sodipodi.sourceforge.net/DTD/sodipodi-0.dtd"
   xmlns="http://www.w3.org/2000/svg"
   xmlns:svg="http://www.w3.org/2000/svg"><sodipodi:namedview
     id="namedview1"
     pagecolor="#ffffff"
     bordercolor="#000000"
     borderopacity="0"
     inkscape:showpageshadow="2"
     inkscape:pageopacity="0.0"
     inkscape:pagecheckerboard="0"
     inkscape:deskcolor="#d1d1d1"
     inkscape:document-units="mm"
     inkscape:zoom="1.6168981"
     inkscape:cx="372.31782"
     inkscape:cy="421.48604"
     inkscape:window-width="3840"
     inkscape:window-height="2054"
     inkscape:window-x="3829"
     inkscape:window-y="-11"
     inkscape:window-maximized="1"
     inkscape:current-layer="layer1" /><defs
     id="defs1" /><g
     inkscape:label="Layer 1"
     inkscape:groupmode="layer"
     id="layer1"><rect
       width="207"
       height="207"
       x="0"
       y="0"
       fill="#ffffff" /><path
       style="fill:#000000;stroke-width:1.07011"
       d="M 96.09047,206.18239 C 88.018905,205.3875 84.55982,204.83533 78.842404,203.42863 41.63688,194.27679 12.247765,164.64322 3.7288455,127.69057 -0.8266178,107.92992 -0.00291101,88.649304 6.1811766,70.288386 9.6020781,60.131547 14.500054,50.873026 21.168182,41.95879 28.296724,32.429079 36.653313,24.505555 46.462626,17.975216 50.719769,15.141126 53.473581,13.57412 58.413134,11.175119 69.430162,5.8244066 79.627494,2.8320098 92.492715,1.1744995 c 4.254743,-0.54816953 17.667625,-0.54531684 22.115565,0.0045 18.58482,2.2981085 35.31938,8.7710595 49.94534,19.3189445 7.25848,5.234563 15.9338,13.90197 21.69268,21.672852 11.30118,15.2494 17.9248,32.555711 19.81706,51.778441 0.35806,3.636805 0.36161,14.236973 0.006,18.144083 -2.30802,25.3662 -12.77655,47.65948 -30.54434,65.04489 -8.00304,7.83084 -16.76645,13.95012 -27.37318,19.1137 -10.55288,5.13755 -20.71142,8.07298 -33.01459,9.53965 -2.80614,0.33459 -16.719789,0.61992 -19.047001,0.39078 z m 18.2829,-6.96743 c 15.46285,-1.74696 29.18338,-6.75968 42.45568,-15.51105 11.23837,-7.40991 20.13615,-16.32303 27.53096,-27.57806 8.25636,-12.56577 13.24588,-26.74254 15.0492,-42.75939 0.46916,-4.16738 0.52987,-16.055206 0.10038,-19.629222 -1.52169,-12.655107 -4.45774,-22.76713 -9.61217,-33.10425 C 181.72431,44.242147 169.24535,30.69618 153.62801,21.262763 130.33422,7.1924857 102.15635,3.5256778 76.439175,11.218131 62.036784,15.5261 50.171923,22.18389 38.651337,32.422154 18.312024,50.497601 6.621859,77.826433 7.385332,105.51452 c 0.3997222,14.49681 3.624613,27.97223 9.627083,40.22711 2.220819,4.53437 3.212824,6.25569 6.288785,10.91484 5.212207,7.89455 11.150763,14.57202 18.188058,20.45094 15.609057,13.04009 34.275691,20.72791 54.389579,22.40045 3.523569,0.29342 14.902973,0.11309 18.494533,-0.2929 z M 77.149422,185.88822 c 1.6e-4,-0.10933 7.845349,-23.63058 8.060325,-24.16662 l 0.224029,-0.55908 16.227454,0.0274 c 14.64646,0.0247 16.46445,-0.008 18.66114,-0.35234 8.2066,-1.2836 15.26184,-4.6237 20.68394,-9.79348 4.53974,-4.32848 7.08693,-8.27589 8.93828,-13.85187 1.40342,-4.22711 1.77743,-6.43431 1.77236,-10.45794 -0.005,-3.83479 -0.40953,-6.40343 -1.4785,-9.3868 -3.77078,-10.52375 -14.01061,-18.893243 -26.26022,-21.463676 -3.89033,-0.816341 -6.48371,-0.980119 -15.59688,-0.98499 -10.440172,-0.0055 -13.730157,-0.19714 -16.301454,-0.949442 -4.851281,-1.419345 -8.122346,-4.168871 -9.238774,-7.765721 -0.478792,-1.542535 -0.533152,-4.45376 -0.112566,-6.028584 0.855814,-3.204457 3.348655,-6.170886 6.483854,-7.715676 3.029771,-1.492831 3.195526,-1.507486 17.10257,-1.511639 6.78754,-0.0019 13.73959,0.09679 15.44915,0.219229 21.76472,1.56089 39.99193,13.143002 49.15555,31.234909 7.53373,14.87387 8.0419,31.29508 1.43295,46.29995 -4.13415,9.38639 -12.79043,19.37974 -22.21196,25.64352 -9.95612,6.61912 -20.53542,10.37922 -32.04037,11.38769 -2.13486,0.18709 -40.951132,0.35194 -40.950878,0.17426 z M 91.646187,140.1046 C 81.253123,139.35231 71.867661,136.61909 63.860418,132.01272 51.964335,125.16909 43.258105,115.16261 38.461681,102.82081 35.833614,96.058487 34.776465,90.613537 34.780974,83.863134 c 0.0052,-7.73019 1.569578,-14.936505 4.803093,-22.125103 2.515223,-5.591728 8.282856,-13.877335 12.523415,-17.990747 9.423671,-9.141137 23.025256,-15.867519 36.383572,-17.99276 5.10656,-0.812469 7.1112,-0.8769 27.297266,-0.877636 l 19.69791,-7.47e-4 -3.36457,9.920683 c -1.85049,5.456352 -3.71472,10.992724 -4.14279,12.30306 l -0.77833,2.382382 -16.93063,0.07874 c -14.16664,0.06569 -17.207069,0.132207 -18.623723,0.406702 -9.859382,1.910447 -17.944716,6.319363 -23.927504,13.047573 -3.733961,4.199168 -6.050179,8.778091 -7.221471,14.276017 -0.552778,2.594637 -0.5465,9.17096 0.01103,11.56526 1.292138,5.549152 3.853932,10.254912 7.931346,14.569052 5.321292,5.63034 12.901489,9.98909 20.032117,11.51879 3.3086,0.71013 4.963673,0.80737 16.507335,0.96826 12.67955,0.17745 12.98848,0.20332 16.02933,1.35108 2.99431,1.13014 5.86929,3.54013 7.00088,5.86927 0.80469,1.65571 1.26969,4.03936 1.10793,5.68052 -0.39591,4.02034 -3.02201,7.75667 -6.73901,9.58807 -3.34865,1.64987 -3.51977,1.66833 -16.5977,1.78422 -6.37712,0.0549 -12.737507,0.0193 -14.134281,-0.079 z"
       id="path11" /></g></svg>
