<svg width="24" height="24" viewBox="0 0 24 24" fill="none" xmlns="http://www.w3.org/2000/svg">
<g id="Group 427319742 1" clip-path="url(#clip0_3405_960)">
<path id="Vector" d="M20.4113 12.5663L8.05685 19.6991C7.20366 20.1917 6.9112 21.2824 7.40363 22.1353C7.89604 22.9882 8.98688 23.2803 9.84008 22.7877L22.1945 15.6549C23.0477 15.1623 23.3402 14.0716 22.8477 13.2186C22.3553 12.3658 21.2645 12.0737 20.4113 12.5663Z" fill="#FF7829"/>
<path id="Vector_2" d="M11.8664 10.2859L2.60062 15.6355C1.74744 16.1281 1.45496 17.2188 1.94738 18.0717C2.4398 18.9246 3.53065 19.2167 4.38385 18.7241L13.6497 13.3745C14.5028 12.8819 14.7953 11.7911 14.3029 10.9382C13.8105 10.0854 12.7196 9.79327 11.8664 10.2859Z" fill="#FCBF22"/>
<path id="Vector_3" d="M14.1579 1.73447L1.8035 8.86732C0.950307 9.35989 0.657845 10.4506 1.15026 11.3035C1.64268 12.1564 2.73352 12.4485 3.58671 11.9559L15.9412 4.82307C16.7943 4.3305 17.0868 3.23975 16.5944 2.38686C16.102 1.53397 15.0111 1.24188 14.1579 1.73447Z" fill="#2AE5B9"/>
</g>
<defs>
<clipPath id="clip0_3405_960">
<rect width="22.4336" height="22.3515" fill="white" transform="translate(0.783203 0.824219)"/>
</clipPath>
</defs>
</svg>
