<svg width="60" height="60" viewBox="0 0 60 60" fill="none" xmlns="http://www.w3.org/2000/svg">
    <rect width="60" height="60" rx="30" fill="#F5F6FA"/>
    <path d="M44.3735 30.3338L23.9972 40.8649C22.59 41.5922 22.1076 43.2025 22.9198 44.4617C23.7319 45.721 25.5311 46.1522 26.9383 45.425L47.3146 34.8939C48.7217 34.1666 49.2041 32.5563 48.3919 31.2971C47.5798 30.0378 45.7807 29.6066 44.3735 30.3338Z"
          fill="#0C1D2F"/>
    <path d="M30.2813 26.9706L14.9991 34.8688C13.592 35.5961 13.1096 37.2065 13.9217 38.4657C14.7339 39.725 16.533 40.1562 17.9402 39.4289L33.2224 31.5306C34.6296 30.8034 35.112 29.193 34.2998 27.9338C33.4877 26.6746 31.6885 26.2433 30.2813 26.9706Z"
          fill="#0C1D2F"/>
    <path d="M34.061 14.3417L13.6847 24.8727C12.2775 25.5999 11.7951 27.2103 12.6073 28.4696C13.4194 29.7288 15.2186 30.16 16.6258 29.4327L37.0021 18.9017C38.4092 18.1745 38.8916 16.5641 38.0794 15.3049C37.2673 14.0456 35.4682 13.6144 34.061 14.3417Z"
          fill="#0C1D2F"/>
</svg>
