<svg width="14" height="14" viewBox="0 0 14 14" fill="none" xmlns="http://www.w3.org/2000/svg">
<g clip-path="url(#clip0_1_2)">
<path d="M11.6243 7.27868L5.56653 10.789C5.14817 11.0315 5.00477 11.5682 5.24623 11.988C5.48767 12.4077 6.02255 12.5515 6.4409 12.3091L12.4987 8.79871C12.9171 8.55628 13.0605 8.0195 12.819 7.59975C12.5776 7.18001 12.0427 7.03626 11.6243 7.27868Z" fill="#FF7829"/>
<path d="M7.43449 6.15647L2.89113 8.78922C2.47278 9.03163 2.32937 9.56843 2.57082 9.98818C2.81227 10.4079 3.34715 10.5517 3.76551 10.3092L8.30886 7.67648C8.72721 7.43407 8.87062 6.89727 8.62916 6.47752C8.38772 6.05779 7.85284 5.91404 7.43449 6.15647Z" fill="#FCBF22"/>
<path d="M8.5581 1.94794L2.50029 5.45828C2.08194 5.70069 1.93853 6.23749 2.17998 6.65724C2.42143 7.07697 2.95631 7.22072 3.37466 6.97829L9.43248 3.46795C9.85082 3.22554 9.99424 2.68874 9.75278 2.269C9.51133 1.84926 8.97646 1.70551 8.5581 1.94794Z" fill="#2AE5B9"/>
</g>
<defs>
<clipPath id="clip0_1_2">
<rect width="11" height="11" fill="white" transform="translate(2 1.5)"/>
</clipPath>
</defs>
</svg>
