<svg fill="none" height="500" viewBox="0 0 500 500" width="500" xmlns="http://www.w3.org/2000/svg" xmlns:xlink="http://www.w3.org/1999/xlink"><linearGradient id="a" gradientUnits="userSpaceOnUse" x1="250.005" x2="250.005" y1="574.157" y2="257.373"><stop offset=".75" stop-color="#584e95"/><stop offset="1" stop-color="#1a0c6e"/></linearGradient><circle cx="250" cy="250" fill="#fff" r="245.49" stroke="#e4e6f8" stroke-width="9.0203"/><path d="m310.584 245.095c-13.836-10.924-18.607-30.639-11.636-47.437 15.94-38.411 22.308-67.158 14.464-71.961-7.845-4.802-27.873 15.577-50.889 49.662-10.065 14.907-28.415 20.471-44.24 13.24-40.192-18.364-71.841-24.11-78.234-12.205-8.779 16.338 33.332 59.717 94.059 96.885 2.25 1.378 4.494 2.718 6.729 4.042.126.08.206.128.206.128s-14.775-6.85-30.454-5.092c-1.23.139-2.3.997-2.832 2.187-20.254 45.24-29.239 80.499-20.47 85.87 9.004 5.51 34.045-22.132 61.229-65.593 3.425-5.472 10.12-7.439 15.669-4.572 48.262 24.93 88.469 34.338 95.771 20.749 6.398-11.904-14.232-38.159-49.382-65.908z" fill="url(#a)"/></svg>