<svg fill="none" height="60" viewBox="0 0 60 60" width="60" xmlns="http://www.w3.org/2000/svg"><rect fill="#f8f8fd" height="60" rx="30" width="60"/><path d="m11.8 40.899v.2h.2 3.0746.2v-.2-7.7784l3.5755-3.4051 8.139 11.3004.0598.0831h.1024 4.0573.4012l-.2415-.3204-10.0671-13.356 9.6167-9.0726.3662-.3454h-.5034-4.1682-.0814l-.0583.0568-11.1982 10.923v-10.7798-.2h-.2-3.0746-.2v.2zm22.9129-.1264.0011.0008c1.485.9525 3.1894 1.4266 5.1066 1.4266 1.608 0 3.0474-.3337 4.3133-1.0062l.0011-.0006c1.2833-.6915 2.2841-1.6132 2.9965-2.7657l.0008-.0014c.7123-1.1741 1.0677-2.4784 1.0677-3.9083 0-2.0129-.6555-3.6921-1.9718-5.022-1.2156-1.2686-2.7838-2.0326-4.6928-2.298l5.581-6.8522.0449-.0552v-.0711-2.2193-.2h-.2-14.0543-.2v.2 2.2193.2h.2 10.7147l-6.2613 7.7589-.0785.0973.053.1131.5193 1.1097.0633.1351.1476-.0221c.5521-.083 1.1264-.1246 1.723-.1246 1.6047 0 2.8958.4525 3.8914 1.3439l.0015.0014c1.0102.886 1.5223 2.1061 1.5223 3.6858 0 1.6031-.5029 2.8339-1.4914 3.7189l-.0015.0014c-.9728.8896-2.2626 1.3426-3.8898 1.3426-1.3268 0-2.4994-.3387-3.5243-1.0126-1.0258-.6956-1.7796-1.6356-2.2627-2.8256l-.0786-.1936-.19.087-2.0773.9511-.1691.0774.0649.1742c.6205 1.6668 1.6646 2.9802 3.1294 3.934z" fill="#020215" stroke="#020215" stroke-width=".4"/></svg>