<svg width="500" height="500" viewBox="0 0 500 500" fill="none" xmlns="http://www.w3.org/2000/svg">
<rect width="500" height="500" fill="#FAFAFA"/>
<g clip-path="url(#clip0_40000856_5086)">
<mask id="mask0_40000856_5086" style="mask-type:luminance" maskUnits="userSpaceOnUse" x="53" y="53" width="394" height="394">
<path d="M447 53H53V447H447V53Z" fill="white"/>
</mask>
<g mask="url(#mask0_40000856_5086)">
<path d="M443.249 257.593C442.861 264.573 442.137 271.553 441 278.476C439.309 288.777 436.785 298.965 433.484 308.843C432.873 310.7 432.206 312.53 431.513 314.359C428.654 322.211 425.297 329.838 421.469 337.24C416.778 346.302 411.397 354.998 405.403 363.244C403.655 365.608 401.879 367.944 400.022 370.252C395.553 375.88 390.754 381.255 385.703 386.377C378.602 393.554 370.942 400.198 362.842 406.221C354.712 412.244 346.139 417.675 337.204 422.375C331.156 425.583 324.913 428.426 318.531 430.959C317.033 431.55 315.535 432.112 314.036 432.675C312.455 433.266 310.845 433.829 309.236 434.364C308.875 434.476 308.515 434.589 308.154 434.702C307.433 434.927 306.711 435.152 305.99 435.377C302.216 436.587 298.443 437.685 294.586 438.67C294.531 438.698 294.475 438.698 294.42 438.698C292.228 439.261 290.036 439.767 287.816 440.189C286.596 440.471 285.375 440.724 284.126 440.949C283.932 441.006 283.738 441.034 283.543 441.062C282.295 441.287 281.074 441.512 279.825 441.709C277.107 442.159 274.387 442.553 271.64 442.863C271.141 442.919 270.669 442.976 270.198 443.032C269.116 443.173 268.034 443.257 266.952 443.37C266.619 443.398 266.258 443.454 265.925 443.454C265.231 443.538 264.538 443.595 263.816 443.651C262.679 443.735 261.541 443.82 260.376 443.876C258.905 443.961 257.462 444.045 255.992 444.073C255.076 444.101 254.188 444.129 253.273 444.158C252.884 444.158 252.468 444.158 252.08 444.158C251.358 444.186 250.665 444.186 249.943 444.186H246.947C188.542 444.186 135.02 417.197 98.8393 374.698C97.8405 373.516 96.8693 372.334 95.8981 371.124C95.6485 370.843 95.3989 370.533 95.1768 370.223H95.1492C75.8102 346.021 61.9096 317.061 55.5835 285.371C54.5014 279.939 57.1928 274.62 62.0205 272.172C75.7825 265.277 94.5943 262.434 108.134 271.356C113.184 274.705 118.927 280.953 117.346 287.595C115.986 293.336 110.687 296.544 106.83 300.512C102.335 305.128 100.559 312.136 101.725 318.468C102.668 323.59 105.443 328.628 109.882 331.414C114.46 334.313 119.704 335.495 125.004 336.227C131.885 337.156 141.096 338.253 146.507 332.624C148.282 330.795 149.614 328.6 151.612 327.024C153.582 325.504 155.857 324.35 158.215 323.618C163.543 321.986 169.869 322.464 174.558 325.673C177.776 327.868 180.717 330.542 184.213 332.315C187.515 333.975 191.122 335.017 194.785 335.467C200.639 336.199 208.324 336.058 213.707 333.328C216.454 331.921 219.062 330.204 221.448 328.178C231.27 319.847 236.792 306.985 237.43 294.124C237.596 290.747 237.375 287.735 235.987 284.611C234.683 281.656 232.796 279.039 231.076 276.337C230.826 275.943 230.577 275.521 230.327 275.07C223.002 262.828 218.868 248.813 225.222 235.05C226.942 230.688 229.356 226.326 231.381 221.851C233.212 217.77 234.739 213.605 235.127 209.271C235.654 204.74 234.627 200.377 232.491 196.634C230.493 193.144 227.525 190.161 224.001 188.079C209.462 179.382 191.261 181.718 175.806 176.343C168.065 173.838 160.824 169.391 155.469 163.059C149.032 155.488 145.175 145.835 143.538 135.309C141.596 123.658 142.262 99.792 159.658 105.843C164.875 107.672 170.507 110.881 176.195 113.076C177.693 113.667 179.219 114.202 180.689 114.596C185.961 116.115 191.455 116.791 196.921 116.397C203.164 116.228 208.852 114.314 214.373 111.725C227.108 105.702 238.678 95.9083 252.94 95.2328C253.744 95.2047 254.549 95.2047 255.381 95.261C255.409 95.2328 255.437 95.2328 255.492 95.261C263.594 95.6831 271.724 99.3698 277.523 105.083C280.27 107.644 282.711 112.063 281.268 115.637C279.382 120.196 275.47 122.279 271.197 125.234C267.673 127.514 263.983 129.99 260.958 133.001C247.28 145.779 251.858 163.847 265.287 177.131C270.975 182.759 276.524 188.276 282.767 193.313C288.704 198.154 295.391 202.376 300.69 207.948C304.741 212.198 307.488 217.545 311.456 221.879C316.755 227.621 323.442 229.253 330.933 228.015C347.276 225.284 362.454 214.196 379.598 216.729C380.181 216.813 380.766 216.898 381.349 217.039C396.83 220.162 400.463 241.101 387.397 250.163C385.649 251.402 384.067 252.612 382.846 253.963C376.269 259.592 372.912 267.669 369.529 275.549C367.753 279.63 366.005 283.654 363.785 287.285C360.261 292.463 354.602 298.233 348.053 297.36C341.006 296.431 341.642 284.245 341.116 279.377C340.671 275.549 339.951 272.2 338.065 268.823C336.455 265.98 334.319 263.475 331.821 261.421C320.223 251.824 305.518 255.848 291.923 256.749C283.765 257.284 275.941 258.241 269.31 263.644C265.953 266.374 263.317 270.005 261.819 274.114C259.294 281.037 260.376 289.368 264.094 295.643C267.562 301.469 274.998 304.678 280.713 307.717C280.797 307.774 280.88 307.802 280.963 307.858C301.689 317.99 289.925 325.701 290.674 344.951C290.674 346.133 290.813 347.343 290.952 348.61C291.007 349.144 291.091 349.707 291.201 350.242C293.532 361.527 279.881 366.593 266.286 364.595C259.738 363.638 253.217 363.075 246.614 362.597C238.373 361.949 230.188 363.948 224.417 370.223C224.306 370.336 224.195 370.449 224.084 370.561C220.089 375.036 217.647 381.227 218.507 387.278C220.449 400.846 237.68 403.913 248.75 404.082C257.435 404.195 265.98 402.506 274.609 402.112C278.133 401.971 281.629 401.69 285.125 401.24C286.818 401.015 288.482 400.761 290.175 400.424C296.39 399.213 302.799 397.243 307.849 393.244C312.677 389.445 315.202 383.31 315.479 377.203C315.59 374.895 315.396 372.503 314.869 370.223C314.702 369.435 314.48 368.676 314.203 367.944C312.871 364.257 310.429 360.936 308.875 357.334C308.126 355.617 307.516 353.816 307.1 351.987C305.851 346.077 307.516 339.407 309.236 333.75C311.206 327.277 314.203 320.86 318.864 315.907C322.471 312.051 327.132 309.378 332.376 308.59C337.62 307.774 344.53 308.224 348.191 312.614C352.438 317.736 353.24 325.11 358.125 329.726C362.952 334.285 371.693 335.636 378.045 335.917C383.595 336.171 389.699 335.692 394.193 332.005C400.022 327.249 401.685 318.947 402.434 311.77C403.267 303.58 402.574 295.306 401.851 287.144C401.463 282.838 401.353 278.898 401.491 275.239C401.769 268.26 403.072 261.28 405.957 254.92C406.874 252.921 407.927 250.98 409.12 249.122C413.812 241.749 421.329 234.825 430.43 234.516C434.592 234.347 438.808 236.12 441.223 239.497C441.696 240.172 442.084 240.904 442.416 241.664C444.47 246.646 443.553 252.359 443.249 257.565V257.593Z" fill="#232323"/>
</g>
</g>
<defs>
<clipPath id="clip0_40000856_5086">
<rect width="394" height="394" fill="white" transform="translate(53 53)"/>
</clipPath>
</defs>
</svg>
