<svg clip-rule="evenodd" fill-rule="evenodd" stroke-linejoin="round" stroke-miterlimit="2" viewBox="0 0 1536 1536" xmlns="http://www.w3.org/2000/svg"><circle cx="767.9675" cy="768" fill="#00bfff" r="768.0075" stroke-width="48.75"/><path d="m22.543 18.869c.818 1.094.99 2.283.515 3.567-.476 1.284-1.419 2.126-2.83 2.527-.675.191-1.364.199-2.066.022-.702-.176-1.277-.51-1.726-1.001-1.628.727-3.157.691-4.588-.107-1.431-.799-2.291-2.096-2.58-3.892-.712-.174-1.318-.516-1.816-1.027-.498-.51-.858-1.154-1.079-1.931-.354-1.248-.072-2.416.846-3.505.917-1.089 1.982-1.563 3.193-1.42l2.129.258c.229-.75.624-1.421 1.186-2.011s1.226-1.016 1.991-1.278l-.453-1.595c-.075-.266-.051-.51.074-.734.124-.223.32-.372.586-.448.265-.075.51-.051.733.074s.373.32.448.586l.522 1.84c.821.011 1.545.186 2.172.528.627.341 1.237.892 1.828 1.652l1.78-.505c.266-.075.51-.051.733.074.223.124.373.32.448.585.076.266.051.511-.073.734-.125.223-.32.373-.586.448l-1.595.453c.179.789.176 1.574-.011 2.356-.187.783-.539 1.468-1.057 2.057zm-7.4 2.896c-.156-.552-.263-1.102-.319-1.65s-.061-1.093-.016-1.636c-.407.358-.868.66-1.384.906s-1.046.424-1.589.534c.226.798.635 1.361 1.226 1.691.591.329 1.285.381 2.082.155zm-3.698-4.387c.655-.186 1.209-.432 1.664-.738.455-.305 1.011-.817 1.67-1.534l-4.117-.489c-.663-.078-1.168.071-1.514.446-.347.374-.442.838-.285 1.39.151.532.435.871.852 1.018s.994.116 1.73-.093zm8.086 5.131c.512-.146.875-.442 1.09-.89.216-.448.187-.843-.087-1.185l-2.841-3.702c-.203.765-.319 1.505-.348 2.22s.032 1.339.183 1.871c.192.675.456 1.158.792 1.449.337.291.741.37 1.211.237zm.092-7.386c.147-.262.234-.58.261-.952.026-.372-.012-.743-.117-1.111-.186-.654-.557-1.145-1.114-1.473-.557-.329-1.153-.403-1.787-.223-.368.105-.698.265-.991.48-.292.216-.519.468-.68.757l2.706.425z" fill="#fff" fill-rule="nonzero" transform="matrix(48.75 0 0 48.75 -16.03 -12)"/></svg>