<svg xmlns="http://www.w3.org/2000/svg" viewBox="0 0 360.88 360.88">
  <defs>
    <style>
      .cls-1 {
        fill: #da4704;
      }

      .cls-2 {
        fill: #f16c05;
      }

      .cls-3 {
        fill: #f27612;
      }

      .cls-4 {
        fill: #02233c;
      }
    </style>
  </defs>
  <title>Asset 1Logo</title>
  <g id="Layer_2" data-name="Layer 2">
    <g id="Layer_2-2" data-name="Layer 2">
      <g id="Layer_1-2" data-name="Layer 1-2">
        <path class="cls-1" d="M197.78,360.06q-8.57.81-17.34.82A180.53,180.53,0,0,1,7.84,233.23C13.23,243.3,24.38,260,45.63,278.05c34.19,29,71,22.21,96.32,16.89s56-3.68,65,9.94c8.74,13.24,11.41,42.26-9.16,55.17Z"/>
        <path class="cls-2" d="M301.35,265.38c-5.27,26.43-13.51,51.42-17.57,63l-.57.4c7.69-29.31-.85-49-11.41-59.45-11.31-11.17-36.1-28.06-67-25.34s-51,16.08-92.37,16.08-57.9-9.81-76.7-26.16c-17.22-15-28.84-39.07-35.7-54.43H0a179.87,179.87,0,0,1,12.9-66.17C18,123.07,45.52,151,82.69,156.4c39.24,5.72,46.73-1.91,86.78-7.49s60.35-4.63,80.65,1.09a65.29,65.29,0,0,1,41,33.79c6.81,14,17.44,45.37,10.22,81.6Z"/>
        <path class="cls-3" d="M356,222.25c1.73-18.55,1.05-37.71-5.48-51.69C333,133,312.11,118.25,276.28,106s-71.11-5.59-91.28-.41-22.34,5.18-47.27,7-54.77-7-63.21-37.74a53.69,53.69,0,0,1,8.57-46.3h0A180.54,180.54,0,0,1,356,222.25Z"/>
        <path class="cls-4" d="M283.2,328.78a179.34,179.34,0,0,1-85.42,31.27c20.57-12.91,17.9-41.93,9.16-55.17-9-13.62-39.64-15.26-65-9.94s-62.12,12.12-96.32-16.89c-21.25-18-32.4-34.75-37.79-44.82A180.21,180.21,0,0,1,0,180.44v-1C6.86,194.84,18.48,219,35.69,233.92c18.8,16.35,35.28,26.16,76.7,26.16s61.44-13.35,92.37-16.08,55.72,14.17,67,25.34c10.56,10.43,19.1,30.14,11.41,59.45Z"/>
        <path class="cls-4" d="M356,222.25h0a180.61,180.61,0,0,1-72.24,106.13,488,488,0,0,0,17.57-63c7.22-36.24-3.41-67.57-10.22-81.6a65.32,65.32,0,0,0-41-33.79c-20.3-5.72-40.6-6.68-80.65-1.09s-47.55,13.21-86.78,7.49C45.51,151,18,123.06,12.89,113.3a181.15,181.15,0,0,1,70.2-84.81,53.7,53.7,0,0,0-8.57,46.3c8.45,30.79,38.28,39.51,63.21,37.74s27.11-1.77,47.27-7,55.45-11.85,91.28.41,56.67,27,74.25,64.57C357.07,184.54,357.74,203.7,356,222.25Z"/>
      </g>
    </g>
  </g>
</svg>
