<svg fill="none" height="65" viewBox="0 0 65 65" width="65" xmlns="http://www.w3.org/2000/svg" xmlns:xlink="http://www.w3.org/1999/xlink"><clipPath id="a"><path d="m5 17h56v32h-56z"/></clipPath><path d="m0 0h65v65h-65z" fill="#fff"/><g clip-path="url(#a)"><path d="m14.2094 26.4991-5.76276-9.1388c-.1409-.2234-.38555-.359-.64813-.359h-2.41192c-.21263 0-.38427.173-.38427.3874v18.9632c0 .2144.17164.3874.38427.3874h2.56178c.21263 0 .38427-.173.38427-.3874v-12.4713c0-.1291.16779-.1782.23568-.0697l5.42328 8.6017c.1512.2389.4983.2389.6481 0l5.4221-8.6017c.0691-.1085.2356-.0594.2356.0697v12.47c0 .2144.1717.3874.3843.3874h2.5618c.2126 0 .3843-.173.3843-.3874v-18.9619c0-.2144-.1717-.3874-.3843-.3874h-2.4106c-.2626 0-.5073.1356-.6482.359l-5.7601 9.1388c-.05.08-.1653.08-.2152 0z" fill="#162125"/><path d="m36.2407 17h-7.7519c-.2127 0-.3843.173-.3843.3873v2.5824c0 .2143.1716.3873.3843.3873h7.7519c.2126 0 .3843-.173.3843-.3873v-2.5824c0-.2143-.1729-.3873-.3843-.3873z" fill="#678dbd"/><path d="m31.5629 28.5482h7.6866c.2127 0 .3843-.173.3843-.3873v-2.5824c0-.2143-.1716-.3873-.3843-.3873h-10.7607c-.2127 0-.3843.173-.3843.3873v10.7735c0 .2143.1716.3873.3843.3873h13.7695c.2127 0 .3843-.173.3843-.3873v-2.5823c0-.2144-.1716-.3874-.3843-.3874h-10.6954c-.0704 0-.1281-.0581-.1281-.1291v-4.5759c0-.071.0564-.1291.1281-.1291z" fill="#162125"/><path d="m55.9564 17.5036-5.2017 14.0194c-.041.1123-.1985.1123-.2395 0l-5.2004-14.0194c-.1128-.3022-.3997-.5036-.7199-.5036h-2.9409c-.2677 0-.4535.2699-.36.5229l7.036 18.9646c.0563.151.1998.2518.3599.2518h3.8926c.1601 0 .3036-.1008.36-.2518l7.0346-18.9646c.0935-.253-.0922-.5229-.3599-.5229h-2.9397c-.3215 0-.6084.2001-.7211.5036z" fill="#162125"/><g fill="#678dbd"><path d="m5.75316 44.2897c.50083-.5164 1.14384-.7746 1.92775-.7746.93633 0 1.65363.3602 2.14805 1.0794l-.84923.6339c-.13577-.1911-.31766-.3486-.5431-.4687-.22544-.12-.47777-.1807-.75572-.1807-.48546 0-.87741.1575-1.17714.4738-.29973.3164-.4496.7179-.4496 1.206 0 .4893.14987.8909.4496 1.2072s.69168.4726 1.17714.4726c.26642 0 .51491-.0646.74291-.1937.22928-.1291.41373-.2892.55463-.4816l.84923.6585c-.49571.7192-1.21172 1.0781-2.14806 1.0781-.78518 0-1.42819-.2582-1.92774-.7747-.50083-.5165-.75188-1.1724-.75188-1.969.00128-.7941.25234-1.4513.75316-1.9665z"/><path d="m13.4333 48.934 2.1571-5.3531h.8018l2.1481 5.3531h-1.1195l-.3433-.8818h-2.1814l-.3433.8818zm3.2689-1.8528-.7109-1.8192-.7109 1.8192z"/><path d="m22.3805 48.934v-5.3531h2.476c.4303 0 .8082.1575 1.1323.4725.324.3164.4854.745.4854 1.2886s-.1627.9736-.4854 1.2899c-.3241.3163-.702.4738-1.1323.4738h-1.4218v1.8283zm1.0542-2.8664h1.2335c.2062 0 .3842-.0671.5303-.2014.1473-.1343.2203-.3086.2203-.5229 0-.2195-.073-.3964-.2165-.5307-.1447-.1342-.3177-.2014-.5188-.2014h-1.2501v1.4564z"/><path d="m30.478 48.934v-5.3531h1.0542v5.3531z"/><path d="m35.5352 43.5809h4.241v.9722h-1.5858v4.3809h-1.0631v-4.3809h-1.5934v-.9722z"/><path d="m42.8568 48.934 2.157-5.3531h.8018l2.1481 5.3531h-1.1195l-.3433-.8818h-2.1814l-.3433.8818zm3.2688-1.8528-.7109-1.8192-.7109 1.8192z"/><path d="m51.8024 48.934v-5.3531h1.0541v4.3809h2.5247v.9722z"/></g></g></svg>