<svg xmlns="http://www.w3.org/2000/svg" width="537" height="537" viewBox="0 0 537 537" fill="none"><script xmlns=""/>
<path d="M149.872 227.249L108.412 366.262" stroke="url(#paint0_linear_1142_579)" stroke-width="24.3882" stroke-linecap="round"/>
<mask id="mask0_1142_579" style="mask-type:alpha" maskUnits="userSpaceOnUse" x="130" y="176" width="303" height="186">
<mask id="path-2-inside-1_1142_579" fill="white">
<path d="M269.374 256.516C269.374 212.068 305.407 176.035 349.855 176.035H352.294C396.742 176.035 432.775 212.068 432.775 256.516V350.854H269.374V256.516Z"/>
</mask>
<path d="M244.986 256.516C244.986 198.599 291.937 151.647 349.855 151.647H352.294C410.212 151.647 457.163 198.599 457.163 256.516H408.387C408.387 225.537 383.273 200.423 352.294 200.423H349.855C318.876 200.423 293.762 225.537 293.762 256.516H244.986ZM432.775 350.854H269.374H432.775ZM244.986 350.854V256.516C244.986 198.599 291.937 151.647 349.855 151.647V200.423C318.876 200.423 293.762 225.537 293.762 256.516V350.854H244.986ZM352.294 151.647C410.212 151.647 457.163 198.599 457.163 256.516V350.854H408.387V256.516C408.387 225.537 383.273 200.423 352.294 200.423V151.647Z" fill="white" mask="url(#path-2-inside-1_1142_579)"/>
<ellipse cx="420.58" cy="350.855" rx="12.1941" ry="10.5313" fill="#A66CFF"/>
<mask id="path-5-inside-2_1142_579" fill="white">
<path d="M130.358 256.516C130.358 212.068 166.391 176.035 210.84 176.035H213.278C257.727 176.035 293.759 212.068 293.759 256.516V350.854H130.358V256.516Z"/>
</mask>
<path d="M105.97 256.516C105.97 198.599 152.922 151.647 210.839 151.647H213.278C271.196 151.647 318.148 198.599 318.148 256.516H269.371C269.371 225.537 244.258 200.423 213.278 200.423H210.839C179.86 200.423 154.747 225.537 154.747 256.516H105.97ZM293.759 350.854H130.358H293.759ZM105.97 350.854V256.516C105.97 198.599 152.922 151.647 210.839 151.647V200.423C179.86 200.423 154.747 225.537 154.747 256.516V350.854H105.97ZM213.278 151.647C271.196 151.647 318.148 198.599 318.148 256.516V350.854H269.371V256.516C269.371 225.537 244.258 200.423 213.278 200.423V151.647Z" fill="#A66CFF" mask="url(#path-5-inside-2_1142_579)"/>
<ellipse cx="281.568" cy="350.855" rx="12.1941" ry="10.5313" fill="#A66CFF"/>
</mask>
<g mask="url(#mask0_1142_579)">
<path d="M138.894 172.877L446.186 176.036V365.599H249.861L156.405 222.325H119.384L138.894 172.877Z" fill="white"/>
</g>
<circle cx="136.41" cy="279.383" r="47.557" stroke="white" stroke-width="24.3882"/>
<defs>
<linearGradient id="paint0_linear_1142_579" x1="109.614" y1="367.122" x2="138.906" y2="248.121" gradientUnits="userSpaceOnUse">
<stop stop-color="white"/>
<stop offset="1" stop-color="white" stop-opacity="0"/>
</linearGradient>
</defs>
<script xmlns=""/></svg>