<svg width="190" height="190" viewBox="0 0 190 190" fill="none" xmlns="http://www.w3.org/2000/svg">
<rect width="190" height="190" rx="95" fill="#1C1917"/>
<path d="M115.027 71.0818C125.79 72.4854 134.92 82.1569 134.92 95C134.92 108.906 124.216 119.094 112.326 119.094C100.436 119.094 89.732 108.906 89.732 95C89.732 91.7559 90.3145 88.7141 91.3588 85.9568C88.4339 80.2804 82.8806 76.7 77.0962 76.4382C74.3653 82.0114 72.8258 88.3191 72.8258 95C72.8258 117.644 90.5106 136 112.326 136C134.141 136 151.826 117.644 151.826 95C151.826 72.3563 134.141 54 112.326 54C108.275 54 104.366 54.633 100.687 55.8088C106.539 59.6895 111.453 64.9295 115.027 71.0818Z" fill="url(#paint0_linear_4090_26075)"/>
<path d="M108.61 71.2393C104.935 65.884 100.051 61.4847 94.3709 58.4708C88.6909 61.4847 83.8066 65.884 80.1315 71.2393C85.7738 72.2565 90.8917 75.5485 94.3709 80.3579C97.85 75.5485 102.968 72.2565 108.61 71.2393Z" fill="url(#paint1_linear_4090_26075)"/>
<path d="M80.1315 118.761C83.8066 124.116 88.691 128.515 94.371 131.529C100.051 128.515 104.935 124.116 108.61 118.761C102.968 117.743 97.8501 114.451 94.3709 109.642C90.8918 114.451 85.7738 117.744 80.1315 118.761Z" fill="url(#paint2_linear_4090_26075)"/>
<path d="M97.3831 104.043C98.4274 101.286 99.0099 98.2441 99.0099 95C99.0099 81.0939 88.3059 70.9061 76.416 70.9061C64.5261 70.9061 53.8221 81.0939 53.8221 95C53.8221 107.843 62.9522 117.515 73.7144 118.918C77.2886 125.07 82.2027 130.311 88.0547 134.191C84.3754 135.367 80.4669 136 76.416 136C54.6008 136 36.916 117.644 36.916 95C36.916 72.3563 54.6008 54 76.416 54C98.2312 54 115.916 72.3563 115.916 95C115.916 101.681 114.377 107.989 111.646 113.562C105.861 113.3 100.308 109.72 97.3831 104.043Z" fill="url(#paint3_linear_4090_26075)"/>
<circle cx="95" cy="95" r="82.5" stroke="url(#paint4_linear_4090_26075)" stroke-width="5"/>
<defs>
<linearGradient id="paint0_linear_4090_26075" x1="94.3709" y1="54" x2="94.3709" y2="136" gradientUnits="userSpaceOnUse">
<stop stop-color="#FA9975"/>
<stop offset="1" stop-color="#818ADF"/>
</linearGradient>
<linearGradient id="paint1_linear_4090_26075" x1="94.3709" y1="54" x2="94.3709" y2="136" gradientUnits="userSpaceOnUse">
<stop stop-color="#FA9975"/>
<stop offset="1" stop-color="#818ADF"/>
</linearGradient>
<linearGradient id="paint2_linear_4090_26075" x1="94.3709" y1="54" x2="94.3709" y2="136" gradientUnits="userSpaceOnUse">
<stop stop-color="#FA9975"/>
<stop offset="1" stop-color="#818ADF"/>
</linearGradient>
<linearGradient id="paint3_linear_4090_26075" x1="94.3709" y1="54" x2="94.3709" y2="136" gradientUnits="userSpaceOnUse">
<stop stop-color="#FA9975"/>
<stop offset="1" stop-color="#818ADF"/>
</linearGradient>
<linearGradient id="paint4_linear_4090_26075" x1="95" y1="10" x2="95" y2="180" gradientUnits="userSpaceOnUse">
<stop stop-color="#FA9975"/>
<stop offset="1" stop-color="#818ADF"/>
</linearGradient>
</defs>
</svg>
