<svg fill="none" height="190" viewBox="0 0 190 190" width="190" xmlns="http://www.w3.org/2000/svg"><rect fill="#969bcf" height="190" rx="95" width="190"/><g fill="#fff"><path d="m115.027 71.0818c10.763 1.4036 19.893 11.0751 19.893 23.9182 0 13.906-10.704 24.094-22.594 24.094s-22.594-10.188-22.594-24.094c0-3.2441.5825-6.2859 1.6268-9.0432-2.9249-5.6764-8.4782-9.2568-14.2626-9.5186-2.7309 5.5732-4.2704 11.8809-4.2704 18.5618 0 22.644 17.6848 41 39.5002 41 21.815 0 39.5-18.356 39.5-41 0-22.6437-17.685-41-39.5-41-4.051 0-7.96.633-11.639 1.8088 5.852 3.8807 10.766 9.1207 14.34 15.273z"/><path d="m108.61 71.2393c-3.675-5.3553-8.559-9.7546-14.2391-12.7685-5.68 3.0139-10.5643 7.4132-14.2394 12.7685 5.6423 1.0172 10.7602 4.3092 14.2394 9.1186 3.4791-4.8094 8.5971-8.1014 14.2391-9.1186z"/><path d="m80.1315 118.761c3.6751 5.355 8.5595 9.754 14.2395 12.768 5.68-3.014 10.564-7.413 14.239-12.768-5.642-1.018-10.7599-4.31-14.2391-9.119-3.4791 4.809-8.5971 8.102-14.2394 9.119z"/><path d="m97.3831 104.043c1.0443-2.757 1.6268-5.7989 1.6268-9.043 0-13.9061-10.704-24.0939-22.5939-24.0939s-22.5939 10.1878-22.5939 24.0939c0 12.843 9.1301 22.515 19.8923 23.918 3.5742 6.152 8.4883 11.393 14.3403 15.273-3.6793 1.176-7.5878 1.809-11.6387 1.809-21.8152 0-39.5-18.356-39.5-41 0-22.6437 17.6848-41 39.5-41s39.5 18.3563 39.5 41c0 6.681-1.539 12.989-4.27 18.562-5.785-.262-11.338-3.842-14.2629-9.519z"/></g></svg>