<svg width="21" height="20" viewBox="0 0 21 20" fill="none" xmlns="http://www.w3.org/2000/svg">
    <circle cx="10.5" cy="10" r="10" fill="#050505"/>
    <g clip-path="url(#clip0_1943_205806)">
        <path d="M10.523 6.0236L12.6007 8.08828C12.4119 8.05574 12.2179 8.03902 12.0201 8.03902C10.1204 8.03902 8.58019 9.58758 8.58019 11.498C8.58019 11.7216 8.60128 11.9402 8.64151 12.152L6.61435 10.1382C6.53963 10.0713 6.46829 10.0005 6.40071 9.92591C5.95645 9.43477 5.67971 8.78597 5.66469 8.06994C5.63215 6.49784 6.87322 5.19683 8.43663 5.16411C8.45665 5.16376 8.47668 5.16357 8.49669 5.16357C9.28904 5.16357 10.0079 5.49237 10.523 6.0236Z"
              fill="url(#paint0_linear_1943_205806)" stroke="black" stroke-width="0.841552" stroke-miterlimit="10"/>
        <path d="M15.2478 12.6931C14.898 13.6478 14.1416 14.4047 13.1896 14.7511C12.9884 14.8012 12.7788 14.83 12.5629 14.8345C12.5428 14.8349 12.5228 14.8352 12.5027 14.8352C11.7313 14.8352 11.0294 14.5233 10.5174 14.0166C10.5092 14.0082 10.501 14.0002 10.4929 13.9919L8.64042 12.1516C8.6002 11.9398 8.5791 11.7212 8.5791 11.4976C8.5791 9.58713 10.1193 8.03857 12.0189 8.03857C12.2169 8.03857 12.4108 8.05529 12.5996 8.08783L14.3688 9.84582C14.4548 9.92151 14.5359 10.0024 14.6123 10.0878C15.0488 10.5773 15.3201 11.22 15.3348 11.9288C15.3403 12.1927 15.3097 12.4491 15.2478 12.6931Z"
              fill="url(#paint1_linear_1943_205806)"/>
        <path d="M15.2478 12.6931C14.898 13.6478 14.1416 14.4047 13.1896 14.7511C12.9884 14.8012 12.7788 14.83 12.5629 14.8345C12.5428 14.8349 12.5228 14.8352 12.5027 14.8352C11.7313 14.8352 11.0294 14.5233 10.5174 14.0166C10.5092 14.0082 10.501 14.0002 10.4929 13.9919L8.64042 12.1516C8.6002 11.9398 8.5791 11.7212 8.5791 11.4976C8.5791 9.58713 10.1193 8.03857 12.0189 8.03857C12.2169 8.03857 12.4108 8.05529 12.5996 8.08783L14.3688 9.84582C14.4548 9.92151 14.5359 10.0024 14.6123 10.0878C15.0488 10.5773 15.3201 11.22 15.3348 11.9288C15.3403 12.1927 15.3097 12.4491 15.2478 12.6931Z"
              fill="white" fill-opacity="0.3"/>
        <path d="M15.2478 12.6931C14.898 13.6478 14.1416 14.4047 13.1896 14.7511C12.9884 14.8012 12.7788 14.83 12.5629 14.8345C12.5428 14.8349 12.5228 14.8352 12.5027 14.8352C11.7313 14.8352 11.0294 14.5233 10.5174 14.0166C10.5092 14.0082 10.501 14.0002 10.4929 13.9919L8.64042 12.1516C8.6002 11.9398 8.5791 11.7212 8.5791 11.4976C8.5791 9.58713 10.1193 8.03857 12.0189 8.03857C12.2169 8.03857 12.4108 8.05529 12.5996 8.08783L14.3688 9.84582C14.4548 9.92151 14.5359 10.0024 14.6123 10.0878C15.0488 10.5773 15.3201 11.22 15.3348 11.9288C15.3403 12.1927 15.3097 12.4491 15.2478 12.6931Z"
              stroke="#050505" stroke-width="0.841552" stroke-miterlimit="10"/>
        <g style="mix-blend-mode:multiply">
            <path d="M15.2486 12.6706C15.1436 12.9571 15.002 13.2259 14.8293 13.4709C14.4271 14.0426 13.8566 14.4861 13.1903 14.7286C12.9892 14.7787 12.7794 14.8075 12.5637 14.812C12.5434 14.8124 12.5234 14.8127 12.5034 14.8127C11.732 14.8127 11.0301 14.5008 10.5181 13.9941C10.5099 13.9857 10.5016 13.9777 10.4936 13.9694L8.64111 12.1291L6.61396 10.1153C6.53923 10.0484 6.4679 9.97757 6.40032 9.90296C6.23996 9.72571 6.10123 9.52796 5.98913 9.31385C5.79015 8.93471 5.67377 8.50469 5.6643 8.04699C5.65625 7.66228 5.85844 7.23839 5.98913 6.90078C5.8457 7.32631 5.90237 8.32089 6.75323 9.17648C6.81508 9.24461 6.88016 9.30933 6.94845 9.37046L8.80077 11.2106L10.3669 12.7916C11.2561 13.6858 12.5387 14.7329 13.6099 14.2117C15.2513 13.4112 15.6498 11.3158 14.0014 9.79476C13.9317 9.71656 13.8575 9.64268 13.779 9.57347L12.0577 7.86201L10.1593 5.97531C9.68839 5.48992 9.03138 5.18953 8.30734 5.18953C8.2891 5.18953 8.27086 5.1897 8.25245 5.19006C8.01253 5.19509 7.78084 5.23267 7.56166 5.29901C7.8359 5.20264 8.12981 5.14746 8.43606 5.14116C8.45608 5.14081 8.4761 5.14062 8.49613 5.14062C9.28847 5.14062 10.0075 5.46943 10.5226 6.00065L12.6003 8.06533L14.3695 9.82332C14.4555 9.89901 14.5366 9.9799 14.613 10.0653C15.0494 10.5548 15.3206 11.1975 15.3352 11.9064C15.3408 12.1702 15.3104 12.4266 15.2486 12.6706Z"
                  fill="#C6C6C6"/>
        </g>
        <g style="mix-blend-mode:overlay" opacity="0.4">
            <path d="M8.12759 5.50375C8.8948 5.51245 9.54451 5.77985 10.0376 6.28111L12.0276 8.23059L13.887 10.0599C13.9695 10.1317 14.0473 10.2079 14.1203 10.2883C14.5376 10.7497 14.823 11.2767 14.8296 11.9384C14.8348 12.4261 14.8197 12.8228 14.1785 13.6257C14.5029 12.9497 14.1259 11.8257 13.6473 11.2971C13.047 10.6345 12.0835 9.63032 11.4436 9.00371C10.4653 8.04538 9.68586 7.20541 8.58782 6.37082C8.04062 5.95491 7.57849 5.77313 6.7959 5.98031C6.7959 5.98031 7.80116 5.47993 8.12759 5.50375Z"
                  fill="white"/>
        </g>
        <g style="mix-blend-mode:overlay" opacity="0.4">
            <path d="M12.4591 14.2636C11.6784 14.0393 10.852 13.2713 10.3669 12.7909L8.45656 10.8684L6.79019 9.27875C6.70922 9.21005 6.63269 9.13705 6.5608 9.05994C6.14981 8.61731 5.93511 8.13077 5.9214 7.48955C5.91429 7.16285 5.98332 6.87819 6.1088 6.58447C6.08313 7.18963 6.11054 7.84882 6.54857 8.32017C6.72685 8.50465 6.85675 8.67757 7.04268 8.85484C7.54584 9.34073 8.15772 9.94966 8.66416 10.4327C9.44255 11.1755 10.0826 11.8991 10.861 12.6418C10.861 12.6418 11.8315 13.8954 13.2961 14.3162C13.1914 14.3688 12.8253 14.3688 12.4591 14.2636Z"
                  fill="white"/>
        </g>
    </g>
    <defs>
        <linearGradient id="paint0_linear_1943_205806" x1="12.6007" y1="8.70439" x2="5.66148" y2="8.71577"
                        gradientUnits="userSpaceOnUse">
            <stop stop-color="#8962F8"/>
            <stop offset="0.349063" stop-color="#A855DD"/>
            <stop offset="1" stop-color="#DD3BEB"/>
        </linearGradient>
        <linearGradient id="paint1_linear_1943_205806" x1="15.3354" y1="11.4822" x2="8.57659" y2="11.4933"
                        gradientUnits="userSpaceOnUse">
            <stop stop-color="#8962F8"/>
            <stop offset="0.349063" stop-color="#A855DD"/>
            <stop offset="1" stop-color="#DD3BEB"/>
        </linearGradient>
        <clipPath id="clip0_1943_205806">
            <rect width="11.25" height="11.25" fill="white" transform="translate(4.875 4.375)"/>
        </clipPath>
    </defs>
</svg>
