<svg fill="none" height="91" viewBox="0 0 91 91" width="91" xmlns="http://www.w3.org/2000/svg"><rect fill="#c4ff61" height="90.5455" rx="45.2727" width="90.5455"/><g fill="#000"><g opacity=".7"><path d="m46.3571 21.8936c1.5358-.0073 3.03.1454 4.4605.4354l-.1278 2.9303c-1.4305-.29-2.9247-.4427-4.4605-.4354z" fill-opacity=".7"/><path d="m50.8164 22.3291c1.1905.2341 2.3534.571 3.4546.9996l-.1278 2.9303c-1.1012-.4286-2.2641-.7655-3.4546-.9996z" fill-opacity=".7"/><path d="m44.1581 22.0068c.7305-.072 1.4595-.1097 2.1985-.1133l-.1278 2.9303c-.739.0036-1.468.0413-2.1985.1133z" fill-opacity=".7"/><path d="m54.2715 23.3291c.5679.2142 1.1228.4627 1.6656.7227l-.1278 2.9303c-.5428-.26-1.0977-.5085-1.6656-.7227z" fill-opacity=".7"/><path d="m55.9375 24.0518c1.0174.4974 1.974 1.0637 2.8815 1.6987l-.1278 2.9303c-.9075-.635-1.8641-1.2013-2.8815-1.6988z"/><path d="m30.7785 28.076c3.6202-3.3281 8.2776-5.5538 13.3799-6.0691l-.1278 2.9303c-5.1023.5153-9.7597 2.741-13.3799 6.0691z"/><path d="m50.1268 27.3216c-.1833-.0334-.3545-.0782-.5262-.1116l-.1278 2.9302c.1717.0335.3429.0783.5262.1117z" fill-opacity=".7"/><path d="m49.6002 27.21c-1.1217-.223-2.283-.3317-3.4493-.3261l-.1278 2.9303c1.1663-.0056 2.3276.1031 3.4493.326z" fill-opacity=".7"/><path d="m46.1504 26.8841c-4.4227.0211-8.6636 1.6968-11.9711 4.738l-.1278 2.9303c3.3075-3.0412 7.5484-4.7169 11.9711-4.738z" fill-opacity=".7"/><path d="m30.766 28.0877.0121-.0115-.1278 2.9305-.0121.0114z" fill-opacity=".7"/><path d="m65.7123 34.2118c-.4512-1.0367-.9963-2.0388-1.6137-2.9721l-.1278 2.9303c.6174.9333 1.1625 1.9353 1.6137 2.9721z"/><path d="m30.0431 28.7761.7227-.6884-.1277 2.9302-.7228.6885z"/><path d="m30.0307 28.7879.0121-.0115-.1278 2.9305-.0121.0114z" fill-opacity=".7"/><path d="m66.3557 35.8638c-.195-.5585-.4016-1.1169-.6438-1.6524l-.1278 2.9303c.2422.5354.4488 1.0939.6438 1.6524z"/><path d="m34.1795 31.6217-.0121.0114-.1278 2.9304.0121-.0114z" fill-opacity=".7"/><path d="m34.1672 31.6335-.6269.6081-.1278 2.9303.6269-.6081z" fill-opacity=".7"/><path d="m33.5408 32.2418-.0121.0114-.1278 2.9305.0121-.0115z" fill-opacity=".7"/><path d="m23.5157 41.8567c.67-5.038 3.0507-9.5932 6.5157-13.0691l-.1278 2.9303c-3.465 3.4759-5.8457 8.0311-6.5157 13.0691z" fill-opacity=".7"/><path d="m28.7483 47.8826 21.3777-20.5609-.1278 2.9302-21.3777 20.561z" fill-opacity=".7"/><path d="m33.528 32.2532c-3.1152 3.1317-4.9206 7.2047-5.1089 11.5211l-.1278 2.9303c.1883-4.3164 1.9938-8.3894 5.109-11.5211z" fill-opacity=".7"/><path d="m58.8188 25.7505-31.9214 30.6922-.1278 2.9303 31.9214-30.6923z" fill-opacity=".7"/><path d="m67.2674 45.6553c.0015-.0342.0151-.0799.0166-.1142l-.1278 2.9304c-.0015.0343-.0151.08-.0166.1143z" fill-opacity=".7"/><path d="m23.4485 42.4271c.0197-.1909.042-.3812.0673-.5704l-.1278 2.9303c-.0253.1892-.0476.3794-.0673.5703z" fill-opacity=".7"/><path d="m23.4115 42.818c.011-.1306.0231-.261.0365-.3911l-.1278 2.9303c-.0134.1301-.0255.2605-.0364.3911z" fill-opacity=".7"/><path d="m23.4052 42.91.0075-.0917-.1278 2.9305-.0075.0916z" fill-opacity=".7"/><path d="m23.3968 43.0138.0081-.1041-.1278 2.9304-.0081.1042z" fill-opacity=".7"/><path d="m23.3769 43.304c.0061-.0968.0128-.1936.0201-.2903l-.1278 2.9304c-.0073.0967-.014.1935-.0201.2904z"/><g fill-opacity=".7"><path d="m28.4199 43.7744c-.0021.0484-.004.0968-.0057.1452l-.1278 2.9304c.0017-.0484.0036-.0968.0057-.1452z"/><path d="m64.0983 31.2396-31.8135 30.6004-.1278 2.9303 31.8135-30.6004z"/><path d="m28.4141 43.9194c-.0017.0484-.0032.0968-.0044.1452l-.1278 2.9304c.0012-.0484.0027-.0968.0044-.1451z"/><path d="m23.3672 43.4617c.0029-.0524.006-.1048.0093-.1572l-.1278 2.9305c-.0033.0523-.0064.1047-.0093.1571z"/><path d="m28.4102 44.0645c-.0013.0502-.0024.1004-.0033.1505l-.1278 2.9305c.0009-.0502.002-.1004.0033-.1506z"/><path d="m23.3645 43.5221.0034-.0606-.1278 2.9304-.0034.0606z"/><path d="m23.3602 43.5936.0037-.0715-.1278 2.9304-.0037.0716z"/><path d="m23.3575 43.6598.0033-.066-.1278 2.9304-.0033.0661z"/><path d="m23.3504 43.7984c.002-.0462.0041-.0925.0064-.1387l-.1278 2.9304c-.0022.0463-.0044.0925-.0064.1387z"/><path d="m23.3431 43.9886c.0022-.0635.0047-.1271.0075-.1907l-.1278 2.9304c-.0028.0636-.0053.1272-.0075.1907z"/><path d="m23.338 44.1796c.0016-.0634.0035-.1268.0058-.1903l-.1278 2.9304c-.0023.0635-.0042.127-.0058.1903z"/><path d="m23.3355 44.2373.0014-.0581-.1278 2.9304-.0014.0581z"/><path d="m23.3332 44.3766c.0007-.0464.0017-.0928.0027-.1393l-.1278 2.9304c-.001.0465-.002.0929-.0027.1393z"/><path d="m28.4062 44.2148c-.0183 1.0856.0699 2.1665.2582 3.2114l-.1278 2.9303c-.1883-1.0449-.2765-2.1258-.2581-3.2114z"/><path d="m36.9033 64.2038 29.4521-28.3401-.1278 2.9303-29.4521 28.34z"/><path d="m23.6635 48.5345c-.2368-1.3374-.3547-2.7286-.3305-4.158l-.1278 2.9303c-.0242 1.4294.0937 2.8206.3305 4.1579z"/><path d="m28.6641 47.438.0845.4448-.1278 2.9303-.0845-.4448z"/></g><path d="m24.5675 51.8869c-.392-1.0713-.7007-2.2001-.9044-3.3522l-.1278 2.9303c.2037 1.1521.5124 2.2809.9044 3.3522z"/><path d="m67.2844 45.541-20.6303 19.8381-.1278 2.9303 20.6304-19.8381z" fill-opacity=".7"/><path d="m46.8626 65.3549c10.2538-1.0992 18.9918-9.2697 20.4049-19.7l-.1277 2.9303c-1.4132 10.4303-10.1512 18.6008-20.405 19.7z" fill-opacity=".7"/><path d="m25.2889 53.6305c-.2637-.5695-.5039-1.1507-.7205-1.7433l-.1278 2.9303c.2166.5926.4568 1.1737.7206 1.7433z"/><path d="m26.8982 56.4426c-.6078-.8876-1.1439-1.8326-1.6091-2.8122l-.1278 2.9303c.4652.9796 1.0013 1.9246 1.6091 2.8122z"/><path d="m32.2842 61.8394c.9642.6575 1.9781 1.2349 3.0421 1.7208l-.1278 2.9303c-1.064-.4859-2.0779-1.0633-3.0421-1.7209z" fill-opacity=".7"/><path d="m35.3271 63.5605c.5213.2259 1.0425.4517 1.5768.6433l-.1278 2.9303c-.5343-.1916-1.0555-.4174-1.5767-.6433z" fill-opacity=".7"/><path d="m46.654 65.3791c.0698-.0118.1391-.0121.2088-.0238l-.1277 2.9302c-.0698.0118-.1391.0121-.2089.0239z" fill-opacity=".7"/></g><path d="m67.2842 45.5412c-.0015.0343-.0151.08-.0166.1143-1.4131 10.4303-10.1511 18.6007-20.4049 19.7-.0698.0118-.1391.0121-.2089.0238z"/><path d="m55.9373 24.0519c-.5428-.26-1.0977-.5086-1.6656-.7228-1.1012-.4285-2.2641-.7655-3.4546-.9996-1.4305-.29-2.9247-.4427-4.4605-.4354-.739.0036-1.468.0413-2.1985.1133-5.1023.5153-9.7597 2.7409-13.3799 6.0691l-.012.0114c-.241.2295-.4819.459-.7228.6885l-.012.0115c-3.465 3.4758-5.8457 8.0311-6.5157 13.0691-.0253.1892-.0476.3794-.0673.5703-.0134.1301-.0255.2605-.0364.3911-.0026.0306-.0051.0611-.0075.0917-.0028.0347-.0055.0694-.0081.1041-.0073.0967-.0139.1935-.02.2904-.0033.0524-.0064.1048-.0094.1572-.0011.0202-.0022.0403-.0033.0605-.0013.0239-.0025.0478-.0038.0716-.0011.022-.0022.044-.0033.0661-.0022.0462-.0043.0924-.0064.1386-.0027.0637-.0052.1273-.0074.1908s-.0042.1269-.0058.1903c-.0005.0194-.001.0387-.0015.0581-.001.0465-.002.0929-.0028.1393-.0241 1.4294.0937 2.8206.3305 4.158.2038 1.1521.5124 2.2809.9044 3.3522.2166.5927.4568 1.1738.7206 1.7434.4653.9796 1.0013 1.9246 1.6091 2.8122l31.9214-30.6923c-.9074-.635-1.864-1.2013-2.8814-1.6987zm-27.1889 23.831c-.0282-.1483-.0563-.2966-.0845-.4449 0 0 0-.0007.0001-.0017 0-.0011.0001-.0025.0001-.004.0001-.0014.0002-.0028.0002-.0039.0001-.0011.0001-.0018.0001-.0018-.1883-1.0449-.2766-2.1258-.2582-3.2113.0009-.0502.002-.1004.0033-.1506.0012-.0484.0027-.0968.0044-.1451.0017-.0484.0036-.0968.0057-.1452.1882-4.3164 1.9937-8.3894 5.1089-11.5211l.012-.0115.6269-.608.0121-.0115c3.3075-3.0413 7.5483-4.7169 11.971-4.738 1.1663-.0056 2.3276.103 3.4493.326.1718.0334.343.0783.5262.1117z"/><path d="m36.9033 64.2042c-.5342-.1915-1.0555-.4173-1.5767-.6432-1.064-.4858-2.0779-1.0633-3.0421-1.7208l31.8135-30.6005c.6174.9333 1.1625 1.9353 1.6137 2.9721.2422.5355.4487 1.0939.6437 1.6524z"/></g></svg>