<?xml version="1.0" encoding="UTF-8" standalone="no"?>
<!DOCTYPE svg PUBLIC "-//W3C//DTD SVG 1.1//EN" "http://www.w3.org/Graphics/SVG/1.1/DTD/svg11.dtd">
<svg width="100%" height="100%" viewBox="0 0 200 200" version="1.1" xmlns="http://www.w3.org/2000/svg" xmlns:xlink="http://www.w3.org/1999/xlink" xml:space="preserve" xmlns:serif="http://www.serif.com/" style="fill-rule:evenodd;clip-rule:evenodd;stroke-linejoin:round;stroke-miterlimit:2;">
    <g transform="matrix(0.390625,0,0,0.390625,-2.22045e-16,0)">
        <path d="M512,256C512,397.29 397.29,512 256,512C114.71,512 0,397.29 0,256C0,114.71 114.71,0 256,0C397.29,0 512,114.71 512,256Z" style="fill:rgb(255,152,170);"/>
    </g>
    <g transform="matrix(0.390625,0,0,0.390625,-2.22045e-16,0)">
        <clipPath id="_clip1">
            <path d="M0,511.472L0,0L196.095,0C231.415,0 262.606,6.179 289.669,18.537C317.191,30.894 338.751,49.202 354.346,73.46C369.942,97.717 377.74,127.696 377.74,163.396C377.74,198.181 369.712,227.932 353.658,252.647C337.603,276.904 316.045,295.212 288.981,307.57L405.95,511.472L286.229,511.472L159.628,285.601L228.433,326.106L106.648,326.106L106.648,511.472L0,511.472ZM106.648,233.424L196.782,233.424C211.92,233.424 224.993,230.449 236.001,224.499C247.01,218.548 255.496,210.31 261.459,199.783C267.88,189.256 271.091,177.127 271.091,163.396C271.091,149.208 267.88,136.851 261.459,126.323C255.496,115.796 247.01,107.558 236.001,101.607C224.993,95.658 211.92,92.683 196.782,92.683L106.648,92.683L106.648,233.424Z" clip-rule="nonzero"/>
        </clipPath>
        <g clip-path="url(#_clip1)">
            <g>
                <path d="M512,256C512,397.29 397.29,512 256,512C114.71,512 0,397.29 0,256C0,114.71 114.71,0 256,0C397.29,0 512,114.71 512,256Z" style="fill:rgb(255,227,232);stroke:black;stroke-opacity:0;stroke-width:2.56px;"/>
            </g>
        </g>
    </g>
</svg>
