<svg fill="none" height="64" viewBox="0 0 64 64" width="64" xmlns="http://www.w3.org/2000/svg"><rect fill="#fdefdf" height="64" rx="31.9976" width="64" x=".087708"/><path d="m32.0898 53.322-21.3198.0125 10.6661-10.6626z" fill="#aebfc3"/><path d="m32.0847 10.666c-11.7808 0-21.3305 9.5498-21.3305 21.3288h21.3305z" fill="#6696ae"/><path d="m10.7536 31.9951 21.3359 21.327h21.3181l.0089-.0071-21.3324-21.3199z" fill="#8aaab8"/><g stroke="#f6e8d7" stroke-linecap="round" stroke-linejoin="round" stroke-width="1.06662"><path d="m32.0898 53.322-21.3198.0125 10.6661-10.6626z"/><path d="m32.0847 10.666c-11.7808 0-21.3305 9.5498-21.3305 21.3288h21.3305z"/><path d="m10.7536 31.9951 21.3359 21.327h21.3181l.0089-.0071-21.3324-21.3199z"/></g><path d="m53.4171 31.9948c0 5.8913-2.3821 11.2208-6.2433 15.0801l-15.089-15.0801v-21.3288c11.7825 0 21.3323 9.5498 21.3323 21.3288z" fill="#4281a4"/><path d="m32.0903 11.2285c4.1098 0 8.1272 1.2187 11.5444 3.502s6.0805 5.5286 7.6533 9.3255c1.5727 3.7969 1.9842 7.975 1.1824 12.0058s-2.7808 7.7334-5.6869 10.6394l-14.6932-14.6933z" fill="#4281a4"/><path d="m53.4171 31.9948c0 5.8913-2.3821 11.2208-6.2433 15.0801l-15.089-15.0801v-21.3288c11.7825 0 21.3305 9.5498 21.3305 21.3288z" stroke="#f6e8d7" stroke-linecap="round" stroke-linejoin="round" stroke-width="1.06662"/></svg>