<svg width="64" height="64" viewBox="0 0 64 64" fill="none" xmlns="http://www.w3.org/2000/svg">
  <rect x="0.0877075" width="64" height="64" rx="31.9976" fill="#FDEFDF" />
  <path d="M32.0898 53.322L10.77 53.3345L21.4361 42.6719L32.0898 53.322Z" fill="#AEBFC3" />
  <path d="M32.0847 10.666C20.3039 10.666 10.7542 20.2158 10.7542 31.9948H32.0847V10.666Z" fill="#6696AE" />
  <path d="M10.7536 31.9951L32.0895 53.3221H53.4076L53.4165 53.315L32.0841 31.9951H10.7536Z" fill="#8AAAB8" />
  <path d="M32.0898 53.322L10.77 53.3345L21.4361 42.6719L32.0898 53.322Z" stroke="#F6E8D7" stroke-width="1.06662" stroke-linecap="round" stroke-linejoin="round" />
  <path d="M32.0847 10.666C20.3039 10.666 10.7542 20.2158 10.7542 31.9948H32.0847V10.666Z" stroke="#F6E8D7" stroke-width="1.06662" stroke-linecap="round" stroke-linejoin="round" />
  <path d="M10.7536 31.9951L32.0895 53.3221H53.4076L53.4165 53.315L32.0841 31.9951H10.7536Z" stroke="#F6E8D7" stroke-width="1.06662" stroke-linecap="round" stroke-linejoin="round" />
  <path d="M53.4171 31.9948C53.4171 37.8861 51.035 43.2156 47.1738 47.0749L32.0848 31.9948V10.666C43.8673 10.666 53.4171 20.2158 53.4171 31.9948Z" fill="#4281A4" />
  <path d="M32.0903 11.2285C36.2001 11.2285 40.2175 12.4472 43.6347 14.7305C47.0519 17.0138 49.7152 20.2591 51.288 24.056C52.8607 27.8529 53.2722 32.031 52.4704 36.0618C51.6686 40.0926 49.6896 43.7952 46.7835 46.7012L32.0903 32.0079V11.2285Z" fill="#4281A4" />
  <path d="M53.4171 31.9948C53.4171 37.8861 51.035 43.2156 47.1738 47.0749L32.0848 31.9948V10.666C43.8673 10.666 53.4153 20.2158 53.4153 31.9948H53.4171Z" stroke="#F6E8D7" stroke-width="1.06662" stroke-linecap="round" stroke-linejoin="round" />
</svg>
