<svg width="500" height="500" viewBox="0 0 500 500" fill="none" xmlns="http://www.w3.org/2000/svg">
<rect width="500" height="500" fill="#3E3AF2"/>
<path d="M337.21 242.91C332.574 220.714 318.003 205.143 311.381 198.849C311.049 197.855 310.718 196.861 310.387 195.868L344.494 171.352C344.494 161.745 342.508 152.469 339.196 143.524L278.928 186.923L281.909 195.205C284.227 202.162 286.545 209.45 286.545 209.45L287.869 213.094L290.85 215.413C291.843 216.076 314.361 234.297 311.712 261.463L297.804 271.401C275.286 287.636 271.312 297.905 266.014 314.468C264.689 318.444 263.365 323.081 261.378 328.382C253.43 348.592 243.827 354.885 228.926 362.174L217.667 367.806L253.761 445.991H285.22V420.813H271.312L251.775 378.408C265.683 370.458 277.604 359.525 286.214 336.666C288.532 330.37 290.187 325.401 291.512 321.096C294.823 310.163 296.479 304.862 306.745 296.578L308.069 321.425L295.817 330.37L311.712 350.58L335.554 334.014L334.561 313.475L345.82 327.721L369.662 311.156L366.681 260.138L337.21 242.91ZM334.229 304.53L332.905 278.027L341.183 272.064L342.838 298.898L334.229 304.53Z" fill="white"/>
<path d="M383 94.6949L366.444 74.8177C366.444 74.8177 362.046 78.59 347.476 89.5225C314.362 57.7188 264.359 45.1299 218.33 58.0501L226.278 81.9029C261.71 71.9643 300.123 80.9091 326.283 104.762C310.388 116.357 291.513 129.94 271.976 144.185C271.313 143.854 270.651 143.523 269.989 142.86C266.015 140.541 260.054 136.566 255.418 132.921C244.822 124.308 232.569 119.67 220.979 120.001C206.078 120.333 192.17 127.289 183.56 138.222C178.924 144.185 176.275 150.48 173.957 156.112C173.294 158.099 172.301 159.756 171.639 161.744C168.99 167.375 166.009 171.02 163.029 172.345L172.963 195.535C182.898 191.891 190.845 183.94 196.475 171.682C197.468 169.363 198.462 167.375 199.124 165.056C201.111 160.418 202.766 156.112 205.416 152.799C209.058 148.161 215.35 144.848 221.642 144.848H221.973C228.596 144.848 234.887 149.155 237.868 151.474C241.841 154.455 245.815 157.437 249.789 159.756C225.615 177.314 200.78 195.204 179.586 210.774L179.255 211.106L180.249 213.756L188.858 233.965L234.556 244.897L234.887 251.191L189.19 284.321C185.878 286.64 182.898 289.621 180.58 292.602C173.957 291.941 167.003 293.266 161.042 295.915C150.777 300.554 143.492 309.499 140.842 319.769L138.856 328.05C137.862 332.688 133.226 336.002 128.259 336.002H117V361.179H128.259C145.81 361.179 161.373 349.585 165.016 333.683L167.003 325.401C167.665 322.75 169.321 320.43 171.97 319.105C172.632 333.351 180.911 345.94 193.825 353.229C193.494 354.222 193.163 354.885 192.501 355.549C190.514 357.534 186.872 358.861 182.567 359.191L167.665 359.522L180.249 445.328H214.688V420.149H203.76L198.13 381.72C204.091 379.732 209.058 376.419 213.032 372.112C219.324 365.155 222.304 355.878 220.979 346.272C220.317 340.64 216.343 336.002 211.045 333.351L209.058 332.358C202.766 329.375 198.793 323.745 198.793 317.117C198.793 316.786 198.793 316.125 198.793 315.793C199.124 311.485 201.773 307.18 206.078 304.199L262.704 263.118L260.717 225.351L217.668 215.081C259.061 185.596 307.739 150.149 342.51 124.97C345.49 129.609 347.808 134.247 349.464 139.216V139.547C360.06 166.05 357.411 196.198 341.515 221.044L364.364 233.965C389.533 195.535 388.87 146.835 363.702 109.4C378.604 98.4673 383 94.6949 383 94.6949Z" fill="white"/>
<path d="M294.31 432.334C294.31 424.401 300.711 418.013 308.657 418.013C316.603 418.013 323.005 424.401 323.005 432.334C323.005 440.266 316.603 446.657 308.657 446.657C300.711 446.657 294.31 440.266 294.31 432.334ZM318.811 432.334C318.811 426.606 314.175 421.978 308.436 421.978C302.697 421.978 298.062 426.606 298.062 432.334C298.062 438.063 302.697 442.692 308.436 442.692C314.175 442.692 318.811 438.063 318.811 432.334ZM303.36 425.724H309.54C312.63 425.724 314.396 427.486 314.396 430.131C314.396 431.894 313.734 432.995 312.41 433.877L314.837 438.946H310.644L308.878 434.538H307.112V438.946H303.36V425.724ZM308.878 431.672C309.981 431.672 310.644 431.013 310.644 430.131C310.644 429.03 309.981 428.369 308.878 428.369H307.112V431.672H308.878Z" fill="white"/>
</svg>
