<svg fill="#f35d00" viewBox="0 0 24 24" xmlns="http://www.w3.org/2000/svg"><path d="m11.0601.0295996c-5.79014.4054784-10.498705 5.0582804-11.0123206 10.8854004-.1733134 1.9688.1315666 3.8546.8058446 5.5467.166986.4208.356746.8301.570546 1.2228.40988.7689.90452 1.4893 1.46747 2.1447.15434.181.31374.357.48199.5266.54018.5649 1.13476 1.0723 1.77868 1.5199.4997.3494 1.02849.6618 1.58132.9295 1.56615.7664 3.32207 1.1948 5.17407 1.1948 1.8521 0 3.6105-.4284 5.1767-1.1948.5528-.2703 1.0816-.5827 1.5813-.9321.6414-.4437 1.236-.955 1.7761-1.5173.167-.1683.3264-.3443.482-.5266.563-.6567 1.0564-1.3758 1.4675-2.1447.2125-.3927.4023-.802.5706-1.2228.5503-1.3784.8539-2.8856.8539-4.4616-.0051-6.8982-5.8105-12.456309-12.7557-11.9705004zm.8451 22.6928004c-.9931 0-1.95578-.1377-2.86915-.3953-.32133-.0905-.3947-.5177-.12777-.7204.81596-.6185 1.52062-1.1489 2.99692-1.1489s2.1835.5317 2.9995 1.1489l.0063.0051c.2631.2014.1885.6248-.129.714-.9159.2588-1.8799.3966-2.8768.3966zm5.5916-1.6041c-.3391.1976-.7616.2002-1.0943-.0077-.253-.1593-.4908-.3379-.7375-.5253-.8717-.6592-1.8597-1.4051-3.7598-1.4051s-2.8856.7459-3.75723 1.4051c-.26313.1976-.51488.3889-.78433.5547-.31501.1951-.71477.1874-1.02977-.009l-.02783-.0178c-.71982-.4488-.79193-1.46-.16446-2.0338.69579-.6362 1.25115-1.4217 1.77362-2.1612 1.10693-1.571 2.06458-2.9238 3.99-2.9238 1.9254 0 2.8831 1.3528 3.99 2.9238.5313.7523 1.0956 1.5517 1.8078 2.1931.6262.5649.544 1.5722-.1834 1.9942l-.0215.0128zm3.021-2.8281c-.3315.4615-.9653.589-1.4422.2817-.835-.5368-1.4624-1.4242-2.1456-2.3946-1.1448-1.6219-2.4428-3.4606-5.0235-3.4606-2.58075 0-3.87618 1.8387-5.02106 3.4606-.6844.9704-1.31187 1.8591-2.14807 2.3959-.47693.3073-1.11073.1798-1.44344-.283-.33904-.4718-.25175-1.1425.21506-1.4855 1.40801-1.0367 2.37073-2.7848 3.31446-4.4934 1.35742-2.45969 2.63766-4.78035 5.08305-4.78035 2.4453 0 3.7268 2.32194 5.083 4.78035.9425 1.7086 1.9064 3.4554 3.3145 4.4921.4617.3404.5794.9793.2441 1.4459l-.0291.0409zm-2.4226-6.5986c-1.4751-2.6739-2.997-5.43702-6.19-5.43702-3.19301 0-4.71488 2.76312-6.18994 5.43702-.72741 1.3184-1.43205 2.5973-2.30747 3.5001-.57687.5955-1.5826.3455-1.7926-.459-.28464-1.0941-.40355-2.257-.32512-3.4581.36054-5.47905 4.88061-9.8475 10.32673-9.99414 5.9989-.16066 10.9276 4.71018 10.9276 10.71844 0 .941-.1215 1.8539-.3479 2.7248-.21.8072-1.2157 1.0596-1.7939.4629-.8741-.9015-1.5788-2.1791-2.3074-3.4976z"/></svg>