<svg width="301" height="301" viewBox="0 0 301 301" fill="none" xmlns="http://www.w3.org/2000/svg">
<path d="M150.361 0.0192434C67.4444 0.0192434 0 67.4637 0 150.38C0 233.297 67.4444 300.742 150.361 300.742C233.278 300.742 300.722 233.297 300.722 150.38C300.722 67.4637 233.278 0.0192434 150.361 0.0192434ZM234.718 238.976C234.512 239.182 232.62 240.91 225.789 240.539C218.958 240.169 209.452 237.7 197.683 232.351C174.269 221.775 145.629 201.612 117.976 174C115.425 171.449 113.038 168.939 110.611 166.388L109.952 165.606H206.613L207.189 166.388C220.398 185.07 229.286 202.311 233.484 216.138C238.751 233.338 235.13 238.523 234.677 238.976H234.718ZM59.3791 242.72C58.9264 242.268 55.3053 237.083 60.5724 219.882C64.8109 206.056 73.6581 188.814 86.8671 170.132H88.1016C93.2865 175.976 98.6771 181.819 104.438 187.58C114.067 197.209 123.902 206.015 133.654 213.957C120.445 223.462 107.771 230.952 96.3727 236.136C84.6039 241.445 75.0983 243.914 68.2675 244.325C61.4366 244.696 59.5437 242.967 59.338 242.762L59.3791 242.72ZM59.3791 67.4225C59.5848 67.2168 61.4778 65.4885 68.3086 65.8588C75.1395 66.2292 84.645 68.6982 96.4139 74.0476C106.866 78.7798 118.388 85.4873 130.362 93.8407C124.272 99.1901 118.182 104.869 112.174 110.877C102.792 120.259 94.1918 129.806 86.4145 139.352C73.4523 120.917 64.7286 103.922 60.5724 90.2606C55.3053 73.06 58.9264 67.8752 59.3791 67.4225ZM204.021 146.451H105.385C111.639 139.085 118.388 131.74 125.671 124.415C153.283 96.8034 181.964 76.6401 205.378 66.0646C217.147 60.7563 226.653 58.2873 233.484 57.8758C240.315 57.5054 242.207 59.2337 242.413 59.4395C242.619 59.6452 243.895 61.0032 244.018 65.8588C244.141 70.838 242.907 77.998 239.533 87.2978C233.443 104.087 221.345 124.806 204.021 146.451ZM221.633 40.346C200.399 44.9959 173.282 59.3572 145.547 81.1665C116.948 60.5094 89.7888 48.1644 69.9135 46.8477C92.1343 29.5648 120.034 19.195 150.32 19.195C176.615 19.195 201.058 26.9723 221.633 40.346ZM39.0511 81.0019C41.3555 100.918 53.865 127.378 74.1519 155.113C56.2929 179.514 44.4417 202.97 40.2856 221.816C26.9119 201.242 19.0935 176.757 19.0935 150.463C19.0935 124.168 26.4182 101.165 39.0511 81.0019ZM80.777 261.649C100.2 257.246 124.437 244.819 149.538 226.096C177.273 245.971 203.609 257.946 223.155 259.551C202.292 273.5 177.232 281.689 150.32 281.689C124.766 281.689 100.94 274.323 80.777 261.649ZM255.334 229.1C254.264 209.554 242.331 182.724 222.126 154.413C242.989 127.501 256.774 101.33 261.383 80.6316C274.14 100.877 281.588 124.785 281.588 150.422C281.588 179.885 271.835 207.126 255.334 229.059V229.1Z" fill="white"/>
</svg>
