<svg width="500" height="500" viewBox="0 0 500 500" fill="none" xmlns="http://www.w3.org/2000/svg">
<path d="M175.991 41.915C179.461 41.915 182.274 44.7262 182.274 48.1939V260.169C182.274 267.799 176.086 273.982 168.452 273.982H126.986C119.352 273.982 113.164 267.799 113.164 260.169V104.703C113.164 70.0266 141.292 41.915 175.991 41.915Z" fill="#0F0825"/>
<path d="M73.7102 110.983C77.1801 110.983 79.9929 113.794 79.9929 117.262V359.627C79.9929 367.257 73.8046 373.44 66.1709 373.44H24.7048C17.0711 373.44 10.8828 367.257 10.8828 359.627V173.772C10.8828 139.095 39.0116 110.983 73.7102 110.983Z" fill="#0F0825"/>
<path d="M324.01 41.915C320.54 41.915 317.727 44.7262 317.727 48.1939V260.169C317.727 267.799 323.915 273.982 331.549 273.982H373.015C380.649 273.982 386.837 267.799 386.837 260.169V104.703C386.837 70.0266 358.709 41.915 324.01 41.915Z" fill="#0F0825"/>
<path d="M426.29 110.983C422.821 110.983 420.008 113.794 420.008 117.262V359.627C420.008 367.257 426.197 373.44 433.83 373.44H475.296C482.929 373.44 489.118 367.257 489.118 359.627V173.772C489.118 139.095 460.989 110.983 426.29 110.983Z" fill="#0F0825"/>
<path d="M229.267 6C221.633 6 215.445 12.1845 215.445 19.8136V460.466C215.445 479.539 230.915 495 250 495C269.085 495 284.555 479.539 284.555 460.466V19.8136C284.555 12.1845 278.367 6 270.733 6H229.267Z" fill="#0F0825"/>
</svg>
