<?xml version="1.0" encoding="UTF-8"?>
<svg id="a" data-name="Layer 1" xmlns="http://www.w3.org/2000/svg" viewBox="0 0 1080 1080">
  <circle cx="540" cy="540" r="540" style="fill: #010326;"/>
  <path d="M286.524944,340.883774v67.774025c0,1.855031,1.503799,3.35883,3.35883,3.35883h291.249081c1.855031,0,3.35883,1.503799,3.35883,3.35883v71.132855h71.132855c1.855031,0,3.35883,1.503799,3.35883,3.35883v291.249081c0,1.855031,1.503799,3.35883,3.35883,3.35883h67.774025c1.855031,0,3.35883-1.503799,3.35883-3.35883v-440.232452c0-1.855031-1.503799-3.35883-3.35883-3.35883h-440.232452c-1.855031,0-3.35883,1.503799-3.35883,3.35883Z" style="fill: #f9f9f9;"/>
  <path d="M361.016629,489.867116v67.774082c0,1.855015,1.503787,3.358802,3.358802,3.358802h67.774082c1.855015,0,3.358802,1.503787,3.358802,3.358802v71.132884h71.132884c1.855015,0,3.358802,1.503787,3.358802,3.358802v67.774082c0,1.855015,1.503787,3.358802,3.358802,3.358802h67.774082c1.855015,0,3.358802-1.503787,3.358802-3.358802v-220.116255h-220.116255c-1.855015,0-3.358802,1.503787-3.358802,3.358802Z" style="fill: #f9f9f9;"/>
  <path d="M364.375431,709.983371h67.774082c1.855015,0,3.358802-1.503787,3.358802-3.358802v-71.132884h-71.132884c-1.855015,0-3.358802,1.503787-3.358802,3.358802v67.774082c0,1.855015,1.503787,3.358802,3.358802,3.358802Z" style="fill: #f9f9f9;"/>
  <path d="M540,109.117821c58.181274,0,114.607117,11.388359,167.710205,33.849083,51.305786,21.700546,97.388916,52.772736,136.969604,92.353271,39.580566,39.580734,70.65271,85.663834,92.353271,136.96965,22.460754,53.103088,33.849121,109.5289,33.849121,167.710175s-11.388367,114.607117-33.849121,167.710205c-21.700562,51.305786-52.772705,97.388916-92.353271,136.969604-39.580688,39.580566-85.663818,70.65271-136.969604,92.353271-53.103088,22.460754-109.528931,33.849121-167.710205,33.849121s-114.607086-11.388367-167.710175-33.849121c-51.305817-21.700562-97.388916-52.772705-136.96965-92.353271-39.580536-39.580688-70.652725-85.663818-92.353271-136.969604-22.460724-53.103088-33.849083-109.528931-33.849083-167.710205s11.388359-114.607086,33.849083-167.710175c21.700546-51.305817,52.772736-97.388916,92.353271-136.96965,39.580734-39.580536,85.663834-70.652725,136.96965-92.353271,53.103088-22.460724,109.5289-33.849083,167.710175-33.849083M540,80.771271c-253.625092,0-459.228729,205.603638-459.228729,459.228729s205.603638,459.228699,459.228729,459.228699,459.228699-205.603638,459.228699-459.228699S793.625061,80.771271,540,80.771271h0Z" style="fill: #f9f9f9;"/>
</svg>