<svg width="250" height="250" viewBox="0 0 250 250" fill="none" xmlns="http://www.w3.org/2000/svg">
<g clip-path="url(#clip0_4535_78610)">
<path d="M125 250C194.036 250 250 194.036 250 125C250 55.9644 194.036 0 125 0C55.9644 0 0 55.9644 0 125C0 194.036 55.9644 250 125 250Z" fill="#0A2845"/>
<path d="M124.996 87.4329C118.918 87.5718 113.2 89.1829 108.188 91.919C103.566 94.4422 99.0102 97.5139 94.4292 100.604C83.2046 108.171 71.8181 115.847 58.9199 115.847H41.6398C40.2023 115.847 39.0356 114.681 39.0356 113.243V94.1991C39.0356 92.7616 40.2023 91.5949 41.6398 91.5949H84.4199C86.4893 91.5949 87.7324 89.2963 86.5981 87.5648L68.7324 60.2685C67.9616 59.0926 68.2648 57.5162 69.4176 56.7084L84.3481 46.2547C85.5518 45.4121 87.2162 45.7315 88.0194 46.9607L108.92 78.8959C110.337 81.0625 113.702 80.0579 113.702 77.4699V40.8056C113.702 39.3681 114.869 38.2014 116.306 38.2014H133.684C135.121 38.2014 136.288 39.3681 136.288 40.8056V77.4699C136.288 80.0579 139.654 81.0602 141.07 78.8959L161.971 46.9607C162.776 45.7315 164.438 45.4098 165.642 46.2547L180.573 56.7084C181.725 57.5139 182.029 59.0903 181.258 60.2685L163.392 87.5648C162.258 89.2963 163.501 91.5949 165.57 91.5949H208.35C209.788 91.5949 210.955 92.7616 210.955 94.1991V113.243C210.955 114.681 209.788 115.847 208.35 115.847H191.07C178.17 115.847 166.786 108.171 155.561 100.604C150.978 97.5139 146.422 94.4422 141.802 91.919C136.79 89.1806 131.073 87.5718 124.994 87.4329H124.996Z" fill="#E8C787"/>
<path d="M155.139 124.662C155.139 141.489 141.623 155.13 124.949 155.13C108.275 155.13 94.7593 141.489 94.7593 124.662C94.7593 107.836 108.275 94.1946 124.949 94.1946C141.623 94.1946 155.139 107.836 155.139 124.662Z" fill="#E8C787"/>
<path d="M133.683 211.12C135.12 211.12 136.287 209.954 136.287 208.516V171.854C136.287 169.266 139.653 168.262 141.069 170.428L161.97 202.364C162.775 203.595 164.437 203.914 165.641 203.072L180.572 192.618C181.724 191.813 182.028 190.236 181.257 189.058L163.391 161.762C162.257 160.03 163.5 157.732 165.569 157.732H208.349C209.787 157.732 210.954 156.565 210.954 155.127V136.083C210.954 134.646 209.787 133.479 208.349 133.479H191.069C178.169 133.479 166.785 141.155 155.56 148.722C150.977 151.813 146.421 154.884 141.801 157.407C136.789 160.146 131.072 161.755 124.993 161.894C118.914 161.755 113.197 160.144 108.185 157.407C103.562 154.882 99.0068 151.81 94.4257 148.722C83.2012 141.153 71.8146 133.479 58.9165 133.479H41.6364C40.1989 133.479 39.0322 134.646 39.0322 136.083V155.127C39.0322 156.565 40.1989 157.732 41.6364 157.732H84.4165C86.4859 157.732 87.729 160.03 86.5947 161.762L68.729 189.058C67.9582 190.234 68.2614 191.81 69.4142 192.618L84.3447 203.072C85.5484 203.914 87.2128 203.595 88.016 202.364L108.916 170.428C110.333 168.262 113.699 169.266 113.699 171.854V208.516C113.699 209.954 114.866 211.12 116.303 211.12H133.678H133.683Z" fill="#E8C787"/>
</g>
<defs>
<clipPath id="clip0_4535_78610">
<rect width="250" height="250" fill="white"/>
</clipPath>
</defs>
</svg>
