<svg fill="none" height="18" viewBox="0 0 18 18" width="18" xmlns="http://www.w3.org/2000/svg"><rect fill="#0a2845" height="18" rx="9" width="18"/><g fill="#e8c787"><path d="m12.2851 10.3824c.378-.71969.6167-1.46711.7097-2.22156.0899-.72956.0333-1.43834-.1638-2.04989-.2372-.73608-.6626-1.31037-1.2384-1.67687-.4052.61463-1.3566 2.21889-2.04373 4.64747-.6778 2.39515-1.72279 3.69825-2.34575 4.30185.24436.066.50014.0995.76518.0995.79102 0 1.61877-.2933 2.3938-.8481.7759-.5555 1.4409-1.3344 1.923-2.2524z"/><path d="m6.52956 13.101c.17055-.1442.43782-.3978.74209-.7868.4828-.6171 1.15931-1.7101 1.64099-3.41268.68905-2.43509 1.61886-4.05248 2.07606-4.75518-.2906-.09707-.5988-.14634-.9207-.14634-.791 0-1.61875.2932-2.39372.84809-.77599.5555-1.44092 1.33432-1.92303 2.25228-.378.71969-.61678 1.4671-.70973 2.22164-.08987.72959-.03322 1.43839.16385 2.04989.24882.7722.70484 1.3662 1.32419 1.7291z"/></g></svg>